<svg width="217" height="260" viewBox="0 0 217 260" fill="none" xmlns="http://www.w3.org/2000/svg">
<path d="M196.24 241.69L155.14 189.53L163.48 255.4L137.98 194.1L128.24 259.78L120.23 193.86L93.13 254.48L103.2 188.85L60.75 239.91L88.15 179.43L33.5 217.14L76.2001 166.29L13.41 187.86L68.24 150.42L1.95007 154.25L64.86 132.99L0 118.79L66.3 115.3L7.68005 84.12L72.4701 98.65L24.4301 52.81L82.9 84.28L49 27.18L96.8201 73.25L79.5801 9.13L113.19 66.39L113.9 0L130.81 64.21L149.41 0.459991L148.37 66.85L183.47 10.49L164.56 74.14L213.57 29.34L178.18 85.53L237.46 55.61L188.23 100.17L253.38 87.35L193.96 116.97L260.15 122.21L194.94 134.7L257.26 157.6L191.1 152.03L244.93 190.9L182.72 167.69L224.07 219.64L170.43 180.51L196.24 241.69Z" fill="black"/>
</svg>
