<svg width="493" height="73" viewBox="0 0 493 73" fill="none" xmlns="http://www.w3.org/2000/svg">
<path d="M20.92 21.36V8.20996H35.64V53.94H20.92V24.09L14.72 10.94V53.94H0V8.20996H14.72L20.92 21.36Z" fill="#221E1E"/>
<path d="M68.7 22.4501H70.95V53.9401H69.79V44.2601C67.4 50.2601 61.54 54.4801 54.66 54.4801C45.66 54.4801 38.37 47.1901 38.37 38.1901C38.37 29.1901 45.66 21.8301 54.66 21.8301C58.54 21.8301 62.16 23.2601 64.95 25.5101L68.7 22.4401V22.4501ZM57.32 38.2001C57.32 36.7001 56.09 35.5401 54.66 35.5401C53.23 35.5401 52 36.7001 52 38.2001C52 39.7001 53.23 40.8601 54.66 40.8601C56.09 40.8601 57.32 39.6301 57.32 38.2001Z" fill="#221E1E"/>
<path d="M89.89 13.0498V22.3898H96.23V23.6198H89.89V37.6598C89.89 39.0898 91.05 40.2498 92.55 40.2498V53.9498C83.49 53.9498 76.19 46.6598 76.19 37.6598V23.6198H69.85V22.3898H76.19V13.0498H89.89Z" fill="#221E1E"/>
<path d="M113.33 51.9C111.49 53.67 109.38 54.49 107.33 54.49C102.97 54.49 99.02 50.88 98.95 45.49V22.52H112.58V45.49C112.58 46.99 113.94 48.28 115.51 48.15C115.85 48.08 117.96 46.38 120.01 44.61V22.46H133.71V53.95H120.01V45.84L113.33 51.91V51.9Z" fill="#221E1E"/>
<path d="M150.14 37.3801L155.11 26.0001C156.06 23.8201 158.24 22.3901 160.7 22.3901C164.45 22.3901 167.51 25.4601 167.51 29.2701C167.51 33.0801 164.44 36.0901 160.7 36.0901H159.88C155.59 36.0901 151.7 36.2901 150.13 40.2501V53.9501H136.43V22.4001H150.13V37.3901L150.14 37.3801Z" fill="#221E1E"/>
<path d="M199.14 22.4501H201.39V53.9401H200.23V44.2601C197.84 50.2601 191.98 54.4801 185.1 54.4801C176.1 54.4801 168.81 47.1901 168.81 38.1901C168.81 29.1901 176.1 21.8301 185.1 21.8301C188.98 21.8301 192.6 23.2601 195.39 25.5101L199.14 22.4401V22.4501ZM187.75 38.2001C187.75 36.7001 186.52 35.5401 185.09 35.5401C183.66 35.5401 182.43 36.7001 182.43 38.2001C182.43 39.7001 183.66 40.8601 185.09 40.8601C186.52 40.8601 187.75 39.6301 187.75 38.2001Z" fill="#221E1E"/>
<path d="M204.11 53.9399V2.1499H217.74V53.9399H204.11Z" fill="#221E1E"/>
<path d="M301.44 35.5098L306.98 22.8398C308.04 20.4098 310.47 18.8198 313.2 18.8198C317.37 18.8198 320.79 22.2298 320.79 26.4798C320.79 30.7298 317.38 34.0698 313.2 34.0698H312.29C307.51 34.0698 303.19 34.2998 301.44 38.6998V53.9498H286.19V18.8198H301.44V35.5098Z" fill="#221E1E"/>
<path d="M341.35 56.9798H356.67V72.1498H323.37V56.9798H339.98V54.5498C329.97 54.5498 321.85 46.4298 321.85 36.4198C321.85 26.4098 329.97 18.2098 339.98 18.2098C349.99 18.2098 358.19 26.3298 358.19 36.4198C358.19 45.9798 350.83 53.7898 341.35 54.4798V56.9798ZM342.94 36.4198C342.94 34.7498 341.65 33.4598 339.98 33.4598C338.31 33.4598 337.1 34.7498 337.1 36.4198C337.1 38.0898 338.39 39.3798 339.98 39.3798C341.57 39.3798 342.94 38.0098 342.94 36.4198ZM351.74 18.7398C351.74 16.9998 353.18 15.5498 354.93 15.5498C356.68 15.5498 358.19 16.9898 358.19 18.7398C358.19 20.4898 356.75 21.9998 354.93 21.9998C353.11 21.9998 351.74 20.5598 351.74 18.7398Z" fill="#221E1E"/>
<path d="M393.01 18.89H395.51V53.94H394.22V43.17C391.56 49.85 385.04 54.55 377.38 54.55C367.37 54.55 359.25 46.43 359.25 36.42C359.25 26.41 367.37 18.21 377.38 18.21C381.7 18.21 385.73 19.8 388.84 22.31L393.01 18.9V18.89ZM380.34 36.42C380.34 34.75 378.97 33.46 377.38 33.46C375.79 33.46 374.42 34.75 374.42 36.42C374.42 38.09 375.79 39.38 377.38 39.38C378.97 39.38 380.34 38.01 380.34 36.42Z" fill="#221E1E"/>
<path d="M421.23 21.17C423.2 19.12 425.55 18.21 427.91 18.21C432.69 18.21 437.17 22.31 437.24 28.3V53.87H421.99V28.3C421.99 26.56 420.55 25.19 418.73 25.34C418.35 25.34 416 27.24 413.72 29.21V53.94H398.55V18.81H413.72V27.84L421.23 21.16V21.17Z" fill="#221E1E"/>
<path d="M456.05 7.89C456.05 12.29 452.56 15.78 448.16 15.78C443.76 15.78 440.27 12.29 440.27 7.89C440.27 3.49 443.84 0 448.16 0C452.48 0 456.05 3.57 456.05 7.89ZM440.57 53.94V18.81H455.74V53.94H440.57Z" fill="#221E1E"/>
<path d="M474.26 36.42C474.26 38.01 475.63 39.38 477.22 39.38C478.13 39.38 478.89 39 479.42 38.39L492.62 46.05C489.43 51.13 483.74 54.55 477.22 54.55C467.21 54.55 459.09 46.43 459.09 36.42C459.09 26.41 467.21 18.21 477.22 18.21C483.74 18.21 489.43 21.62 492.62 26.78L479.42 34.37C478.89 33.84 478.13 33.46 477.22 33.46C475.63 33.46 474.26 34.75 474.26 36.42Z" fill="#221E1E"/>
<path d="M255.85 55.07C242.81 55.07 232.19 44.46 232.19 31.41C232.19 18.36 242.8 7.75 255.85 7.75H256.05L259.79 7.98H260.39V20.91H259.39L255.67 20.68C249.84 20.77 245.13 25.55 245.13 31.4C245.13 37.25 249.94 42.12 255.85 42.12C261.76 42.12 266.57 37.31 266.57 31.4V29.13H279.5V31.4C279.5 44.44 268.89 55.06 255.84 55.06L255.85 55.07Z" fill="#221E1E"/>
<path d="M280.17 12.7699H275V7.60986H269.44V12.7699H264.27V18.3399H269.44V23.4999H275V18.3399H280.17V12.7699Z" fill="url(#paint0_linear_8_5130)"/>
<defs>
<linearGradient id="paint0_linear_8_5130" x1="264.27" y1="15.5499" x2="280.17" y2="15.5499" gradientUnits="userSpaceOnUse">
<stop stop-color="#D76BA8"/>
<stop offset="1" stop-color="#F16522"/>
</linearGradient>
</defs>
</svg>
