<svg width="353" height="98" viewBox="0 0 353 98" fill="none" xmlns="http://www.w3.org/2000/svg">
<path d="M93.6799 48.0302L101.17 30.8902C102.61 27.6102 105.89 25.4502 109.59 25.4502C115.23 25.4502 119.85 30.0702 119.85 35.8202C119.85 41.5702 115.23 46.0801 109.59 46.0801H108.36C101.89 46.0801 96.0399 46.3901 93.6799 52.3401V72.9702H73.0499V25.4502H93.6799V48.0302Z" fill="url(#paint0_linear_8_5153)"/>
<path d="M147.66 77.07H168.39V97.6H123.33V77.07H145.81V73.7901C132.26 73.7901 121.28 62.8101 121.28 49.2601C121.28 35.7101 132.26 24.6301 145.81 24.6301C159.36 24.6301 170.44 35.6101 170.44 49.2601C170.44 62.1901 160.48 72.76 147.66 73.69V77.08V77.07ZM149.82 49.2601C149.82 47.0001 148.08 45.2601 145.82 45.2601C143.56 45.2601 141.92 47.0001 141.92 49.2601C141.92 51.5201 143.66 53.2601 145.82 53.2601C147.98 53.2601 149.82 51.4101 149.82 49.2601ZM161.72 25.35C161.72 22.99 163.67 21.04 166.03 21.04C168.39 21.04 170.44 22.99 170.44 25.35C170.44 27.71 168.49 29.7601 166.03 29.7601C163.57 29.7601 161.72 27.81 161.72 25.35Z" fill="url(#paint1_linear_8_5153)"/>
<path d="M217.56 25.5501H220.95V72.9701H219.21V58.4001C215.62 67.4301 206.79 73.8002 196.43 73.8002C182.88 73.8002 171.9 62.8201 171.9 49.2701C171.9 35.7201 182.88 24.6401 196.43 24.6401C202.28 24.6401 207.72 26.8001 211.93 30.1801L217.57 25.5601L217.56 25.5501ZM200.42 49.2601C200.42 47.0001 198.57 45.2601 196.42 45.2601C194.27 45.2601 192.42 47.0001 192.42 49.2601C192.42 51.5201 194.27 53.2601 196.42 53.2601C198.57 53.2601 200.42 51.4101 200.42 49.2601Z" fill="url(#paint2_linear_8_5153)"/>
<path d="M255.73 28.6299C258.4 25.8599 261.58 24.6299 264.76 24.6299C271.23 24.6299 277.28 30.1698 277.38 38.2798V72.8699H256.75V38.2798C256.75 35.9198 254.8 34.0698 252.34 34.2798C251.83 34.2798 248.65 36.8499 245.57 39.5099V72.9698H225.04V25.4499H245.57V37.6599L255.73 28.6299Z" fill="url(#paint3_linear_8_5153)"/>
<path d="M302.84 10.67C302.84 16.62 298.12 21.34 292.17 21.34C286.22 21.34 281.5 16.62 281.5 10.67C281.5 4.71998 286.32 0 292.17 0C298.02 0 302.84 4.81998 302.84 10.67ZM281.9 72.97V25.45H302.43V72.97H281.9Z" fill="url(#paint4_linear_8_5153)"/>
<path d="M327.47 49.2601C327.47 51.4201 329.32 53.2601 331.47 53.2601C332.7 53.2601 333.73 52.7502 334.45 51.9302L352.31 62.3002C348 69.1802 340.3 73.8002 331.48 73.8002C317.93 73.8002 306.95 62.8201 306.95 49.2701C306.95 35.7201 317.93 24.6401 331.48 24.6401C340.31 24.6401 348 29.2601 352.31 36.2401L334.45 46.5001C333.73 45.7801 332.71 45.2701 331.47 45.2701C329.31 45.2701 327.47 47.0101 327.47 49.2701V49.2601Z" fill="url(#paint5_linear_8_5153)"/>
<path d="M32 74.5C14.35 74.5 0 60.14 0 42.5C0 24.86 14.36 10.5 32 10.5H32.27L37.33 10.81H38.14V28.31H36.79L31.76 28C23.87 28.13 17.49 34.58 17.49 42.5C17.49 50.42 24 57 31.99 57C39.98 57 46.49 50.49 46.49 42.5V39.43H63.99V42.5C63.99 60.15 49.63 74.5 31.99 74.5H32Z" fill="url(#paint6_linear_8_5153)"/>
<path d="M171.7 93.7302V79.7803H174.43V93.7302H171.7ZM173.73 87.8602V85.3502H182.17V87.8602H173.73ZM180.88 93.7302V79.8003H183.61V93.7302H180.88Z" fill="black"/>
<path d="M190.92 93.9702C189.9 93.9702 189 93.7503 188.21 93.3003C187.43 92.8603 186.81 92.2402 186.37 91.4602C185.92 90.6802 185.7 89.7802 185.7 88.7502C185.7 87.7202 185.92 86.8303 186.36 86.0403C186.8 85.2603 187.41 84.6402 188.19 84.2002C188.97 83.7602 189.87 83.5303 190.88 83.5303C191.89 83.5303 192.8 83.7502 193.59 84.2002C194.37 84.6402 194.98 85.2603 195.42 86.0403C195.86 86.8203 196.08 87.7202 196.08 88.7502C196.08 89.7802 195.86 90.6702 195.42 91.4602C194.98 92.2402 194.38 92.8603 193.6 93.3003C192.82 93.7403 191.93 93.9702 190.92 93.9702ZM190.92 91.5403C191.41 91.5403 191.84 91.4203 192.2 91.1803C192.56 90.9403 192.85 90.6102 193.07 90.2002C193.28 89.7802 193.39 89.3003 193.39 88.7603C193.39 88.2203 193.28 87.7402 193.07 87.3202C192.86 86.9002 192.56 86.5702 192.19 86.3402C191.82 86.1102 191.38 85.9802 190.91 85.9802C190.44 85.9802 189.98 86.1002 189.61 86.3402C189.24 86.5802 188.94 86.9102 188.73 87.3202C188.52 87.7402 188.41 88.2203 188.41 88.7603C188.41 89.3003 188.52 89.7802 188.73 90.2002C188.94 90.6202 189.24 90.9503 189.62 91.1803C190 91.4103 190.44 91.5403 190.93 91.5403H190.92Z" fill="black"/>
<path d="M197.81 93.73V83.78H200.28L200.4 85.0699C200.7 84.5699 201.1 84.1801 201.57 83.9301C202.04 83.6801 202.58 83.54 203.16 83.54C203.97 83.54 204.65 83.7099 205.2 84.0599C205.75 84.4099 206.15 84.94 206.4 85.65C206.69 84.97 207.1 84.45 207.63 84.09C208.16 83.73 208.78 83.54 209.48 83.54C210.65 83.54 211.54 83.91 212.15 84.64C212.76 85.38 213.07 86.51 213.07 88.03V93.72H210.44V88.63C210.44 87.95 210.37 87.4299 210.22 87.0599C210.07 86.6899 209.88 86.42 209.62 86.25C209.37 86.08 209.07 86 208.72 86C208.08 85.99 207.59 86.19 207.25 86.62C206.9 87.04 206.73 87.67 206.73 88.51V93.72H204.1V88.63C204.1 87.95 204.03 87.4299 203.89 87.0599C203.75 86.6899 203.55 86.42 203.29 86.25C203.03 86.08 202.73 86 202.38 86C201.74 85.99 201.26 86.19 200.92 86.62C200.58 87.04 200.41 87.67 200.41 88.51V93.72H197.78L197.81 93.73Z" fill="black"/>
<path d="M219.65 93.9702C218.67 93.9702 217.8 93.7503 217.04 93.3003C216.28 92.8503 215.69 92.2402 215.26 91.4602C214.83 90.6802 214.61 89.7802 214.61 88.7502C214.61 87.7202 214.83 86.8303 215.28 86.0403C215.72 85.2603 216.33 84.6402 217.11 84.2002C217.89 83.7602 218.78 83.5303 219.79 83.5303C220.67 83.5303 221.47 83.7602 222.21 84.2202C222.95 84.6802 223.54 85.3502 223.98 86.2302C224.42 87.1102 224.65 88.1802 224.65 89.4402H217.11L217.35 89.2002C217.35 89.6902 217.47 90.1202 217.72 90.4802C217.97 90.8402 218.28 91.1202 218.68 91.3202C219.07 91.5102 219.49 91.6102 219.94 91.6102C220.48 91.6102 220.93 91.4903 221.27 91.2603C221.61 91.0303 221.88 90.7302 222.07 90.3502L224.42 91.2703C224.14 91.8303 223.78 92.3102 223.34 92.7102C222.89 93.1102 222.37 93.4203 221.76 93.6403C221.15 93.8603 220.45 93.9602 219.67 93.9602L219.65 93.9702ZM217.49 87.7402L217.25 87.5002H222.04L221.82 87.7402C221.82 87.2602 221.71 86.8802 221.48 86.6002C221.25 86.3102 220.98 86.1102 220.65 85.9702C220.32 85.8402 220.01 85.7703 219.7 85.7703C219.39 85.7703 219.07 85.8402 218.73 85.9702C218.38 86.1002 218.09 86.3102 217.84 86.6002C217.59 86.8902 217.47 87.2702 217.47 87.7402H217.49Z" fill="black"/>
<path d="M56.71 24.8701H51.63C51.63 25.1401 51.63 25.3802 51.63 25.6302C51.63 27.4202 51.64 29.2001 51.63 30.9901C51.63 32.0301 51.15 32.4901 50.13 32.4901C48.16 32.5001 46.2 32.4901 44.23 32.4901C43.22 32.4901 42.73 31.9901 42.73 30.9901C42.73 26.9901 42.73 22.9901 42.73 18.9901C42.73 18.4201 42.94 18.0001 43.39 17.6601C46.68 15.1101 49.95 12.5602 53.24 10.0102C53.95 9.46016 54.43 9.46016 55.13 10.0102C58.4 12.5402 61.66 15.0901 64.93 17.6201C65.43 18.0101 65.65 18.4902 65.65 19.1302C65.63 23.0402 65.65 26.9501 65.64 30.8601C65.64 32.0701 65.2 32.5001 64.01 32.5001C62.11 32.5001 60.21 32.5001 58.31 32.5001C57.2 32.5001 56.74 32.0501 56.73 30.9401C56.72 29.1801 56.73 27.4102 56.73 25.6502C56.73 25.4102 56.73 25.1602 56.73 24.8802L56.71 24.8701Z" fill="black"/>
<defs>
<linearGradient id="paint0_linear_8_5153" x1="-94.2601" y1="49.2102" x2="366.96" y2="49.2102" gradientUnits="userSpaceOnUse">
<stop offset="0.04" stop-color="#00B180"/>
<stop offset="0.3" stop-color="#12B6A7"/>
<stop offset="0.61" stop-color="#24BCCF"/>
<stop offset="0.85" stop-color="#2FC0E7"/>
<stop offset="1" stop-color="#34C2F1"/>
</linearGradient>
<linearGradient id="paint1_linear_8_5153" x1="-94.26" y1="59.32" x2="366.96" y2="59.32" gradientUnits="userSpaceOnUse">
<stop offset="0.04" stop-color="#00B180"/>
<stop offset="0.3" stop-color="#12B6A7"/>
<stop offset="0.61" stop-color="#24BCCF"/>
<stop offset="0.85" stop-color="#2FC0E7"/>
<stop offset="1" stop-color="#34C2F1"/>
</linearGradient>
<linearGradient id="paint2_linear_8_5153" x1="-94.2601" y1="49.2102" x2="366.96" y2="49.2102" gradientUnits="userSpaceOnUse">
<stop offset="0.04" stop-color="#00B180"/>
<stop offset="0.3" stop-color="#12B6A7"/>
<stop offset="0.61" stop-color="#24BCCF"/>
<stop offset="0.85" stop-color="#2FC0E7"/>
<stop offset="1" stop-color="#34C2F1"/>
</linearGradient>
<linearGradient id="paint3_linear_8_5153" x1="-94.2599" y1="48.7999" x2="366.96" y2="48.7999" gradientUnits="userSpaceOnUse">
<stop offset="0.04" stop-color="#00B180"/>
<stop offset="0.3" stop-color="#12B6A7"/>
<stop offset="0.61" stop-color="#24BCCF"/>
<stop offset="0.85" stop-color="#2FC0E7"/>
<stop offset="1" stop-color="#34C2F1"/>
</linearGradient>
<linearGradient id="paint4_linear_8_5153" x1="-94.2605" y1="36.48" x2="366.96" y2="36.48" gradientUnits="userSpaceOnUse">
<stop offset="0.04" stop-color="#00B180"/>
<stop offset="0.3" stop-color="#12B6A7"/>
<stop offset="0.61" stop-color="#24BCCF"/>
<stop offset="0.85" stop-color="#2FC0E7"/>
<stop offset="1" stop-color="#34C2F1"/>
</linearGradient>
<linearGradient id="paint5_linear_8_5153" x1="-94.2598" y1="49.2102" x2="366.96" y2="49.2102" gradientUnits="userSpaceOnUse">
<stop offset="0.04" stop-color="#00B180"/>
<stop offset="0.3" stop-color="#12B6A7"/>
<stop offset="0.61" stop-color="#24BCCF"/>
<stop offset="0.85" stop-color="#2FC0E7"/>
<stop offset="1" stop-color="#34C2F1"/>
</linearGradient>
<linearGradient id="paint6_linear_8_5153" x1="-94.26" y1="42.49" x2="366.96" y2="42.49" gradientUnits="userSpaceOnUse">
<stop offset="0.04" stop-color="#00B180"/>
<stop offset="0.3" stop-color="#12B6A7"/>
<stop offset="0.61" stop-color="#24BCCF"/>
<stop offset="0.85" stop-color="#2FC0E7"/>
<stop offset="1" stop-color="#34C2F1"/>
</linearGradient>
</defs>
</svg>
