<svg width="254" height="117" viewBox="0 0 254 117" fill="none" xmlns="http://www.w3.org/2000/svg">
<path d="M127.92 89.48H101.14V116.26H127.92V89.48Z" fill="#221F1F"/>
<path d="M35.5013 2.94741L26.9945 6.94678L55.5261 67.6344L64.0329 63.6351L35.5013 2.94741Z" fill="#231F20"/>
<path d="M53.07 33.38V0.0100098H90.41V116.02H53.07V40.29L37.34 6.92001V116.01H0V0H37.34L53.07 33.37V33.38Z" fill="#211E1F"/>
<path d="M195.41 116.08C164.11 116.08 138.65 90.6201 138.65 59.3201C138.65 28.0201 164.11 2.56006 195.41 2.56006H195.89L204.87 3.12006H206.31V34.1601H203.91L194.99 33.6101C181 33.8401 169.69 45.2901 169.69 59.3301C169.69 73.3701 181.23 85.0601 195.42 85.0601C209.61 85.0601 221.15 73.5201 221.15 59.3301V53.8901H252.19V59.3301C252.19 90.6301 226.73 116.09 195.43 116.09L195.41 116.08Z" fill="url(#paint0_linear_8_5075)"/>
<path d="M253.75 14.5702H241.37V2.18018H228V14.5702H215.62V27.9302H228V40.3202H241.37V27.9302H253.75V14.5702Z" fill="#221F1F"/>
<defs>
<linearGradient id="paint0_linear_8_5075" x1="138.65" y1="59.3101" x2="252.17" y2="59.3101" gradientUnits="userSpaceOnUse">
<stop stop-color="#F469DC"/>
<stop offset="1" stop-color="#F56D00"/>
</linearGradient>
</defs>
</svg>
