<svg width="372" height="130" viewBox="0 0 372 130" fill="none" xmlns="http://www.w3.org/2000/svg">
<path d="M306.49 129.66C342.21 129.66 371.17 100.63 371.17 64.8301C371.17 29.0201 342.21 0 306.49 0H64.83C29.02 0 0 29.0301 0 64.8301V129.66H306.5H306.49Z" fill="#1D1C1A"/>
<path d="M311.84 34.01L341.69 54.3201V75.3201L311.84 95.63V76.42L326.9 64.8101L311.84 53.2001V33.9901V34.01ZM277.43 34.01L307.28 54.3201V75.3201L277.43 95.63V76.42L292.49 64.8101L277.43 53.2001V33.9901V34.01Z" fill="white"/>
<path d="M41.75 40.29H41.7L39.0499 41.7201L38.65 40.15L41.98 38.3701H43.74V53.63H41.74V40.29H41.75Z" fill="white"/>
<path d="M59.46 45.8301C59.46 51.0201 57.54 53.88 54.15 53.88C51.17 53.88 49.15 51.09 49.1 46.04C49.1 40.92 51.3099 38.1001 54.4099 38.1001C57.5099 38.1001 59.46 40.9601 59.46 45.8301ZM51.1699 46.0701C51.1699 50.0401 52.39 52.29 54.27 52.29C56.38 52.29 57.39 49.8201 57.39 45.9301C57.39 42.0401 56.4299 39.7101 54.2899 39.7101C52.4799 39.7101 51.1699 41.9201 51.1699 46.0701Z" fill="white"/>
<path d="M71.51 45.8301C71.51 51.0201 69.59 53.88 66.2 53.88C63.22 53.88 61.2 51.09 61.15 46.04C61.15 40.92 63.36 38.1001 66.46 38.1001C69.56 38.1001 71.51 40.9601 71.51 45.8301ZM63.22 46.0701C63.22 50.0401 64.4399 52.29 66.3199 52.29C68.4299 52.29 69.4399 49.8201 69.4399 45.9301C69.4399 42.0401 68.48 39.7101 66.34 39.7101C64.53 39.7101 63.22 41.9201 63.22 46.0701Z" fill="white"/>
<path d="M80.2999 42.66C80.2999 45.88 78.61 47.4701 76.64 47.4701C74.67 47.4701 73.0899 45.9401 73.0699 42.8701C73.0699 39.8201 74.74 38.1001 76.76 38.1001C78.9 38.1001 80.3099 39.74 80.3099 42.66H80.2999ZM74.71 42.8C74.66 44.75 75.3899 46.2301 76.6799 46.2301C78.0399 46.2301 78.65 44.77 78.65 42.75C78.65 40.89 78.1099 39.3401 76.6799 39.3401C75.3899 39.3401 74.71 40.87 74.71 42.79V42.8ZM76.49 53.89L85.46 38.1101H86.78L77.8099 53.89H76.49ZM90.23 48.9801C90.23 52.2001 88.54 53.79 86.59 53.79C84.64 53.79 83.04 52.2601 83.02 49.2101C83.02 46.1301 84.69 44.42 86.71 44.42C88.85 44.42 90.23 46.0601 90.23 48.9801ZM84.64 49.1201C84.62 51.0701 85.37 52.55 86.64 52.55C88 52.55 88.61 51.0901 88.61 49.0701C88.61 47.2101 88.07 45.66 86.64 45.66C85.35 45.66 84.64 47.1901 84.64 49.1101V49.1201Z" fill="white"/>
<path d="M97.72 37.8H106.24V39.51H99.76V44.77H105.75V46.4601H99.76V53.6201H97.72V37.79V37.8Z" fill="white"/>
<path d="M109.09 45.8101C109.09 44.4701 109.07 43.32 109 42.26H110.81L110.88 44.4901H110.97C111.49 42.9601 112.73 42 114.12 42C114.36 42 114.52 42.0201 114.71 42.0701V44.02C114.5 43.97 114.29 43.9501 114 43.9501C112.54 43.9501 111.51 45.0501 111.23 46.6001C111.18 46.8801 111.14 47.2101 111.14 47.5601V53.6201H109.1V45.8L109.09 45.8101Z" fill="white"/>
<path d="M117.92 48.3201C117.97 51.1101 119.75 52.27 121.82 52.27C123.3 52.27 124.19 52.0101 124.97 51.6801L125.32 53.16C124.59 53.49 123.35 53.8601 121.54 53.8601C118.04 53.8601 115.95 51.56 115.95 48.13C115.95 44.7 117.97 42 121.28 42C124.99 42 125.98 45.2601 125.98 47.3501C125.98 47.7701 125.93 48.1001 125.91 48.3101H117.93L117.92 48.3201ZM123.98 46.8401C124 45.5201 123.44 43.4801 121.11 43.4801C119.02 43.4801 118.1 45.4101 117.94 46.8401H123.98Z" fill="white"/>
<path d="M128.26 51.51C128.87 51.91 129.95 52.3301 130.98 52.3301C132.48 52.3301 133.19 51.58 133.19 50.64C133.19 49.65 132.6 49.11 131.08 48.55C129.04 47.82 128.07 46.7001 128.07 45.3301C128.07 43.5001 129.55 42 131.99 42C133.14 42 134.15 42.3301 134.78 42.7001L134.26 44.2001C133.81 43.9201 132.99 43.54 131.93 43.54C130.71 43.54 130.03 44.2401 130.03 45.0901C130.03 46.0301 130.71 46.45 132.19 47.02C134.16 47.77 135.17 48.7601 135.17 50.4501C135.17 52.4501 133.62 53.8601 130.92 53.8601C129.68 53.8601 128.52 53.5501 127.73 53.0901L128.25 51.52L128.26 51.51Z" fill="white"/>
<path d="M137.84 36.9601H139.91V44.05H139.96C140.29 43.46 140.8 42.9501 141.44 42.5901C142.05 42.2401 142.78 42 143.55 42C145.08 42 147.52 42.9401 147.52 46.8601V53.6201H145.45V47.0901C145.45 45.2601 144.77 43.7101 142.82 43.7101C141.48 43.7101 140.43 44.65 140.05 45.78C139.93 46.06 139.91 46.37 139.91 46.77V53.63H137.84V36.9601Z" fill="white"/>
<path d="M165.83 53.63C165.38 53.18 164.96 52.7401 164.35 52.0801C162.99 53.3501 161.46 53.89 159.72 53.89C156.64 53.89 154.86 51.8201 154.86 49.4501C154.86 47.2901 156.15 45.8101 157.96 44.8201V44.75C157.14 43.72 156.64 42.5701 156.64 41.4401C156.64 39.5101 158.03 37.54 160.66 37.54C162.63 37.54 164.16 38.85 164.16 40.9C164.16 42.57 163.2 43.88 160.68 45.13V45.2001C162.02 46.7501 163.52 48.4901 164.53 49.6101C165.26 48.5101 165.75 46.9801 166.06 44.9801H167.94C167.52 47.4701 166.84 49.4401 165.66 50.8301C166.51 51.7201 167.33 52.6101 168.27 53.6201H165.83V53.63ZM163.34 50.9C162.4 49.87 160.64 47.94 158.88 45.92C158.04 46.46 156.84 47.47 156.84 49.14C156.84 50.95 158.18 52.3301 160.08 52.3301C161.44 52.3301 162.59 51.72 163.34 50.9ZM158.53 41.25C158.53 42.38 159.05 43.2501 159.73 44.0901C161.33 43.1701 162.36 42.3301 162.36 40.9901C162.36 40.0301 161.82 38.9501 160.53 38.9501C159.24 38.9501 158.53 40.03 158.53 41.25Z" fill="white"/>
<path d="M188.64 45.55C188.64 51 185.33 53.89 181.29 53.89C177.25 53.89 174.17 50.6501 174.17 45.8601C174.17 40.8301 177.29 37.55 181.52 37.55C185.75 37.55 188.64 40.8601 188.64 45.5601V45.55ZM176.36 45.8101C176.36 49.1901 178.19 52.2201 181.41 52.2201C184.63 52.2201 186.48 49.24 186.48 45.64C186.48 42.49 184.84 39.2101 181.43 39.2101C178.02 39.2101 176.36 42.3301 176.36 45.8101Z" fill="white"/>
<path d="M191.22 45.8101C191.22 44.4701 191.2 43.32 191.13 42.26H192.94L193.01 44.4901H193.1C193.62 42.9601 194.86 42 196.25 42C196.49 42 196.65 42.0201 196.84 42.0701V44.02C196.63 43.97 196.42 43.9501 196.13 43.9501C194.67 43.9501 193.64 45.0501 193.36 46.6001C193.31 46.8801 193.27 47.2101 193.27 47.5601V53.6201H191.23V45.8L191.22 45.8101Z" fill="white"/>
<path d="M208.7 42.26C208.65 43.08 208.61 44 208.61 45.38V51.9801C208.61 54.5901 208.09 56.18 206.99 57.17C205.89 58.2 204.29 58.53 202.86 58.53C201.43 58.53 200 58.2001 199.08 57.5901L199.6 56.02C200.35 56.49 201.53 56.91 202.93 56.91C205.04 56.91 206.59 55.8101 206.59 52.9401V51.67H206.54C205.91 52.73 204.68 53.5701 202.92 53.5701C200.1 53.5701 198.08 51.17 198.08 48.03C198.08 44.18 200.59 41.9901 203.2 41.9901C205.17 41.9901 206.25 43.0201 206.75 43.9601H206.8L206.89 42.25H208.7V42.26ZM206.56 46.75C206.56 46.4 206.54 46.0901 206.44 45.8101C206.06 44.6101 205.06 43.63 203.55 43.63C201.58 43.63 200.17 45.3001 200.17 47.9301C200.17 50.1601 201.3 52.02 203.53 52.02C204.8 52.02 205.95 51.22 206.39 49.91C206.51 49.56 206.56 49.1601 206.56 48.8101V46.77V46.75Z" fill="white"/>
<path d="M218.33 53.63L218.17 52.2001H218.1C217.47 53.0901 216.24 53.89 214.62 53.89C212.32 53.89 211.14 52.27 211.14 50.63C211.14 47.88 213.58 46.38 217.97 46.4V46.17C217.97 45.23 217.71 43.54 215.39 43.54C214.33 43.54 213.23 43.87 212.43 44.39L211.96 43.03C212.9 42.42 214.26 42.02 215.69 42.02C219.17 42.02 220.01 44.39 220.01 46.67V50.92C220.01 51.91 220.06 52.87 220.2 53.64H218.32L218.33 53.63ZM218.02 47.8301C215.77 47.7801 213.21 48.18 213.21 50.39C213.21 51.73 214.1 52.3601 215.16 52.3601C216.64 52.3601 217.58 51.4201 217.91 50.4601C217.98 50.2501 218.03 50.01 218.03 49.8V47.8301H218.02Z" fill="white"/>
<path d="M223.35 45.3401C223.35 44.1701 223.33 43.2 223.26 42.26H225.09L225.21 44.14H225.26C225.82 43.06 227.14 42 229.02 42C230.59 42 233.04 42.9401 233.04 46.8401V53.63H230.97V47.0801C230.97 45.2501 230.29 43.7201 228.34 43.7201C226.98 43.7201 225.92 44.6801 225.57 45.8301C225.48 46.0901 225.43 46.44 225.43 46.79V53.6201H223.36V45.3301L223.35 45.3401Z" fill="white"/>
<path d="M238.69 39.0701C238.71 39.7701 238.2 40.3401 237.37 40.3401C236.64 40.3401 236.13 39.7801 236.13 39.0701C236.13 38.3601 236.67 37.78 237.42 37.78C238.17 37.78 238.69 38.3401 238.69 39.0701ZM236.39 53.63V42.26H238.46V53.63H236.39Z" fill="white"/>
<path d="M249.99 53.2101C249.45 53.4901 248.25 53.8701 246.73 53.8701C243.3 53.8701 241.07 51.5501 241.07 48.0701C241.07 44.5901 243.47 42.03 247.18 42.03C248.4 42.03 249.48 42.3401 250.05 42.6201L249.58 44.2201C249.09 43.9401 248.31 43.6801 247.18 43.6801C244.57 43.6801 243.16 45.6101 243.16 47.9801C243.16 50.6101 244.85 52.2301 247.11 52.2301C248.28 52.2301 249.06 51.92 249.65 51.67L250 53.2201L249.99 53.2101Z" fill="white"/>
<path d="M251.07 56.52C251.59 55.13 252.22 52.62 252.48 50.91L254.78 50.6801C254.24 52.6801 253.21 55.28 252.55 56.39L251.07 56.53V56.52Z" fill="white"/>
<path d="M37.35 71.52V61.4701H38.77L41.99 66.55C42.74 67.73 43.3199 68.7901 43.7899 69.8101H43.8199C43.6999 68.4501 43.6699 67.23 43.6699 65.67V61.4701H44.89V71.52H43.58L40.39 66.42C39.69 65.3 39.02 64.1501 38.51 63.0701H38.47C38.54 64.3501 38.5699 65.5601 38.5699 67.2301V71.52H37.35Z" fill="white"/>
<path d="M51.11 71.52L51.01 70.6101H50.97C50.57 71.1801 49.79 71.6801 48.76 71.6801C47.3 71.6801 46.5499 70.6501 46.5499 69.6101C46.5499 67.8701 48.1 66.9101 50.89 66.9301V66.78C50.89 66.18 50.73 65.1101 49.25 65.1101C48.58 65.1101 47.88 65.32 47.37 65.65L47.0699 64.79C47.6699 64.4 48.5299 64.15 49.4399 64.15C51.6499 64.15 52.1799 65.6601 52.1799 67.1001V69.8C52.1799 70.43 52.2099 71.04 52.2999 71.53H51.11V71.52ZM50.9099 67.8401C49.4799 67.8101 47.85 68.0601 47.85 69.4601C47.85 70.3101 48.42 70.7101 49.09 70.7101C50.03 70.7101 50.63 70.11 50.83 69.5C50.87 69.37 50.9 69.2201 50.9 69.0801V67.8301L50.9099 67.8401Z" fill="white"/>
<path d="M55.88 62.2301V64.3H57.76V65.3H55.88V69.1901C55.88 70.0801 56.13 70.5901 56.86 70.5901C57.2 70.5901 57.46 70.55 57.62 70.5L57.6799 71.4801C57.4299 71.5801 57.02 71.66 56.52 71.66C55.91 71.66 55.42 71.4701 55.1 71.1101C54.73 70.7201 54.59 70.0801 54.59 69.2301V65.29H53.47V64.29H54.59V62.5601L55.87 62.2201L55.88 62.2301Z" fill="white"/>
<path d="M65.27 69.55C65.27 70.3 65.28 70.95 65.33 71.52H64.1699L64.1 70.3401H64.0699C63.7299 70.9201 62.9699 71.6801 61.6899 71.6801C60.5599 71.6801 59.2 71.05 59.2 68.52V64.3H60.51V68.3C60.51 69.67 60.93 70.6001 62.12 70.6001C63 70.6001 63.61 69.99 63.85 69.41C63.93 69.22 63.97 68.9801 63.97 68.7401V64.3101H65.28V69.5601L65.27 69.55Z" fill="white"/>
<path d="M67.4399 66.55C67.4399 65.7 67.43 64.97 67.38 64.3H68.53L68.5699 65.7201H68.63C68.96 64.7501 69.75 64.14 70.63 64.14C70.78 64.14 70.88 64.1501 71 64.1801V65.42C70.87 65.39 70.7299 65.38 70.5499 65.38C69.6299 65.38 68.9699 66.0801 68.7899 67.0601C68.7599 67.2401 68.73 67.45 68.73 67.67V71.52H67.4299V66.5601L67.4399 66.55Z" fill="white"/>
<path d="M73.0499 68.15C73.0799 69.92 74.21 70.65 75.52 70.65C76.46 70.65 77.03 70.49 77.52 70.28L77.74 71.2201C77.28 71.4301 76.49 71.67 75.34 71.67C73.12 71.67 71.7899 70.21 71.7899 68.03C71.7899 65.85 73.0699 64.14 75.1699 64.14C77.5299 64.14 78.15 66.21 78.15 67.54C78.15 67.81 78.12 68.02 78.11 68.15H73.0399H73.0499ZM76.9 67.2101C76.91 66.3801 76.56 65.0801 75.08 65.0801C73.75 65.0801 73.1699 66.3001 73.0699 67.2101H76.9Z" fill="white"/>
<path d="M84.4099 62.27C84.4299 62.72 84.1 63.0801 83.58 63.0801C83.12 63.0801 82.7899 62.72 82.7899 62.27C82.7899 61.82 83.13 61.4501 83.61 61.4501C84.09 61.4501 84.4099 61.81 84.4099 62.27ZM82.95 71.52V64.3H84.26V71.52H82.95Z" fill="white"/>
<path d="M86.26 70.1801C86.65 70.4301 87.33 70.7001 87.99 70.7001C88.94 70.7001 89.39 70.22 89.39 69.63C89.39 69 89.0199 68.66 88.0499 68.3C86.7499 67.84 86.14 67.12 86.14 66.26C86.14 65.1 87.08 64.14 88.63 64.14C89.36 64.14 90 64.3501 90.4 64.5901L90.0699 65.54C89.7899 65.36 89.27 65.1201 88.59 65.1201C87.81 65.1201 87.38 65.5701 87.38 66.1001C87.38 66.7001 87.81 66.9601 88.75 67.3201C90 67.8001 90.64 68.42 90.64 69.5C90.64 70.77 89.6599 71.66 87.9399 71.66C87.1499 71.66 86.4199 71.47 85.9099 71.17L86.24 70.17L86.26 70.1801Z" fill="white"/>
<path d="M95.5 66.66C95.5 65.74 95.4699 64.99 95.4399 64.3H96.62L96.6799 65.54H96.71C97.25 64.66 98.1 64.14 99.27 64.14C101.01 64.14 102.33 65.6201 102.33 67.8101C102.33 70.4001 100.75 71.6901 99.0499 71.6901C98.0999 71.6901 97.26 71.2701 96.83 70.5601H96.7999V74.4801H95.5V66.67V66.66ZM96.7999 68.5801C96.7999 68.7701 96.83 68.9501 96.86 69.1201C97.1 70.0301 97.89 70.66 98.83 70.66C100.22 70.66 101.02 69.5301 101.02 67.8701C101.02 66.4201 100.26 65.1901 98.87 65.1901C97.98 65.1901 97.14 65.8301 96.89 66.8101C96.85 66.9701 96.7999 67.1701 96.7999 67.3501V68.5901V68.5801Z" fill="white"/>
<path d="M103.98 60.9301H105.29V71.51H103.98V60.9301Z" fill="white"/>
<path d="M108.23 68.15C108.26 69.92 109.39 70.65 110.7 70.65C111.64 70.65 112.21 70.49 112.7 70.28L112.92 71.2201C112.46 71.4301 111.67 71.67 110.52 71.67C108.3 71.67 106.97 70.21 106.97 68.03C106.97 65.85 108.25 64.14 110.35 64.14C112.71 64.14 113.33 66.21 113.33 67.54C113.33 67.81 113.3 68.02 113.29 68.15H108.22H108.23ZM112.08 67.2101C112.09 66.3801 111.74 65.0801 110.26 65.0801C108.93 65.0801 108.35 66.3001 108.25 67.2101H112.08Z" fill="white"/>
<path d="M118.97 71.52L118.87 70.6101H118.83C118.43 71.1801 117.65 71.6801 116.62 71.6801C115.16 71.6801 114.41 70.6501 114.41 69.6101C114.41 67.8701 115.96 66.9101 118.75 66.9301V66.78C118.75 66.18 118.59 65.1101 117.11 65.1101C116.44 65.1101 115.74 65.32 115.23 65.65L114.93 64.79C115.53 64.4 116.39 64.15 117.3 64.15C119.51 64.15 120.04 65.6601 120.04 67.1001V69.8C120.04 70.43 120.07 71.04 120.16 71.53H118.97V71.52ZM118.77 67.8401C117.34 67.8101 115.71 68.0601 115.71 69.4601C115.71 70.3101 116.28 70.7101 116.95 70.7101C117.89 70.7101 118.49 70.11 118.69 69.5C118.73 69.37 118.76 69.2201 118.76 69.0801V67.8301L118.77 67.8401Z" fill="white"/>
<path d="M121.98 70.1801C122.37 70.4301 123.05 70.7001 123.71 70.7001C124.66 70.7001 125.11 70.22 125.11 69.63C125.11 69 124.74 68.66 123.77 68.3C122.47 67.84 121.86 67.12 121.86 66.26C121.86 65.1 122.8 64.14 124.35 64.14C125.08 64.14 125.72 64.3501 126.12 64.5901L125.79 65.54C125.51 65.36 124.99 65.1201 124.31 65.1201C123.53 65.1201 123.1 65.5701 123.1 66.1001C123.1 66.7001 123.53 66.9601 124.47 67.3201C125.72 67.8001 126.36 68.42 126.36 69.5C126.36 70.77 125.38 71.66 123.66 71.66C122.87 71.66 122.14 71.47 121.63 71.17L121.96 70.17L121.98 70.1801Z" fill="white"/>
<path d="M128.79 68.15C128.82 69.92 129.95 70.65 131.27 70.65C132.21 70.65 132.77 70.49 133.27 70.28L133.49 71.2201C133.03 71.4301 132.24 71.67 131.09 71.67C128.87 71.67 127.54 70.21 127.54 68.03C127.54 65.85 128.82 64.14 130.92 64.14C133.28 64.14 133.9 66.21 133.9 67.54C133.9 67.81 133.87 68.02 133.86 68.15H128.79ZM132.64 67.2101C132.65 66.3801 132.3 65.0801 130.82 65.0801C129.49 65.0801 128.91 66.3001 128.81 67.2101H132.64Z" fill="white"/>
<path d="M141.76 60.9301V69.65C141.76 70.29 141.78 71.02 141.82 71.51H140.64L140.58 70.26H140.55C140.15 71.06 139.27 71.6801 138.09 71.6801C136.35 71.6801 135 70.2 135 68.01C134.99 65.61 136.48 64.13 138.24 64.13C139.34 64.13 140.09 64.6501 140.42 65.2301H140.45V60.92H141.76V60.9301ZM140.45 67.2401C140.45 67.0801 140.44 66.8501 140.39 66.6901C140.2 65.8601 139.48 65.17 138.5 65.17C137.14 65.17 136.34 66.3601 136.34 67.9601C136.34 69.4201 137.05 70.63 138.47 70.63C139.35 70.63 140.15 70.0501 140.39 69.0601C140.43 68.8801 140.45 68.7001 140.45 68.4901V67.2401Z" fill="white"/>
<path d="M147.62 64.3L148.57 67.9701C148.78 68.7701 148.97 69.52 149.11 70.27H149.15C149.31 69.54 149.55 68.7601 149.79 67.9901L150.97 64.3101H152.07L153.19 67.92C153.46 68.78 153.67 69.54 153.83 70.28H153.87C153.99 69.55 154.18 68.7901 154.42 67.9401L155.45 64.3201H156.75L154.42 71.54H153.23L152.13 68.1001C151.88 67.2901 151.67 66.5801 151.49 65.7301H151.46C151.28 66.5901 151.06 67.3401 150.8 68.1201L149.64 71.55H148.45L146.27 64.3301H147.61L147.62 64.3Z" fill="white"/>
<path d="M159.53 62.27C159.55 62.72 159.22 63.0801 158.7 63.0801C158.24 63.0801 157.91 62.72 157.91 62.27C157.91 61.82 158.25 61.4501 158.73 61.4501C159.21 61.4501 159.53 61.81 159.53 62.27ZM158.07 71.52V64.3H159.38V71.52H158.07Z" fill="white"/>
<path d="M163.14 62.2301V64.3H165.02V65.3H163.14V69.1901C163.14 70.0801 163.39 70.5901 164.12 70.5901C164.46 70.5901 164.72 70.55 164.88 70.5L164.94 71.4801C164.69 71.5801 164.28 71.66 163.78 71.66C163.17 71.66 162.68 71.4701 162.36 71.1101C161.99 70.7201 161.85 70.0801 161.85 69.2301V65.29H160.73V64.29H161.85V62.5601L163.13 62.2201L163.14 62.2301Z" fill="white"/>
<path d="M166.49 60.9301H167.8V65.4301H167.83C168.04 65.0601 168.37 64.73 168.77 64.51C169.16 64.29 169.62 64.14 170.11 64.14C171.08 64.14 172.63 64.7401 172.63 67.2301V71.52H171.32V67.38C171.32 66.22 170.89 65.2301 169.65 65.2301C168.8 65.2301 168.13 65.83 167.89 66.54C167.82 66.72 167.8 66.91 167.8 67.17V71.52H166.49V60.9401V60.9301Z" fill="white"/>
<path d="M177.75 70.1801C178.14 70.4301 178.82 70.7001 179.48 70.7001C180.43 70.7001 180.88 70.22 180.88 69.63C180.88 69 180.51 68.66 179.54 68.3C178.24 67.84 177.63 67.12 177.63 66.26C177.63 65.1 178.57 64.14 180.12 64.14C180.85 64.14 181.49 64.3501 181.89 64.5901L181.56 65.54C181.28 65.36 180.76 65.1201 180.08 65.1201C179.3 65.1201 178.87 65.5701 178.87 66.1001C178.87 66.7001 179.3 66.9601 180.24 67.3201C181.49 67.8001 182.13 68.42 182.13 69.5C182.13 70.77 181.15 71.66 179.43 71.66C178.64 71.66 177.91 71.47 177.4 71.17L177.73 70.17L177.75 70.1801Z" fill="white"/>
<path d="M185.29 62.27C185.31 62.72 184.98 63.0801 184.46 63.0801C184 63.0801 183.67 62.72 183.67 62.27C183.67 61.82 184.01 61.4501 184.49 61.4501C184.97 61.4501 185.29 61.81 185.29 62.27ZM183.83 71.52V64.3H185.14V71.52H183.83Z" fill="white"/>
<path d="M187.32 66.26C187.32 65.51 187.31 64.9001 187.26 64.3101H188.41L188.47 65.4701H188.51C188.91 64.7801 189.58 64.14 190.78 64.14C191.76 64.14 192.51 64.7401 192.82 65.5901H192.85C193.07 65.1901 193.36 64.87 193.65 64.65C194.08 64.32 194.56 64.14 195.25 64.14C196.2 64.14 197.62 64.77 197.62 67.27V71.52H196.34V67.4401C196.34 66.0501 195.83 65.2201 194.77 65.2201C194.02 65.2201 193.44 65.77 193.22 66.41C193.16 66.59 193.12 66.8301 193.12 67.0701V71.53H191.84V67.2101C191.84 66.0601 191.33 65.2301 190.33 65.2301C189.51 65.2301 188.91 65.89 188.71 66.54C188.64 66.73 188.61 66.9601 188.61 67.1801V71.53H187.33V66.27L187.32 66.26Z" fill="white"/>
<path d="M199.75 66.66C199.75 65.74 199.72 64.99 199.69 64.3H200.87L200.93 65.54H200.96C201.5 64.66 202.35 64.14 203.52 64.14C205.26 64.14 206.58 65.6201 206.58 67.8101C206.58 70.4001 205 71.6901 203.3 71.6901C202.35 71.6901 201.51 71.2701 201.08 70.5601H201.05V74.4801H199.75V66.67V66.66ZM201.05 68.5801C201.05 68.7701 201.08 68.9501 201.11 69.1201C201.35 70.0301 202.14 70.66 203.08 70.66C204.47 70.66 205.27 69.5301 205.27 67.8701C205.27 66.4201 204.51 65.1901 203.12 65.1901C202.23 65.1901 201.39 65.8301 201.14 66.8101C201.1 66.9701 201.05 67.1701 201.05 67.3501V68.5901V68.5801Z" fill="white"/>
<path d="M208.23 60.9301H209.54V71.51H208.23V60.9301Z" fill="white"/>
<path d="M213.21 62.27C213.23 62.72 212.9 63.0801 212.38 63.0801C211.92 63.0801 211.59 62.72 211.59 62.27C211.59 61.82 211.93 61.4501 212.41 61.4501C212.89 61.4501 213.21 61.81 213.21 62.27ZM211.75 71.52V64.3H213.06V71.52H211.75Z" fill="white"/>
<path d="M220.38 71.25C220.04 71.43 219.28 71.67 218.31 71.67C216.13 71.67 214.72 70.1901 214.72 67.9901C214.72 65.7901 216.24 64.16 218.6 64.16C219.38 64.16 220.06 64.35 220.42 64.53L220.12 65.54C219.81 65.36 219.32 65.2001 218.6 65.2001C216.95 65.2001 216.05 66.4201 216.05 67.9301C216.05 69.6001 217.12 70.63 218.55 70.63C219.3 70.63 219.79 70.44 220.16 70.27L220.38 71.25Z" fill="white"/>
<path d="M223.38 62.27C223.4 62.72 223.07 63.0801 222.55 63.0801C222.09 63.0801 221.76 62.72 221.76 62.27C221.76 61.82 222.1 61.4501 222.58 61.4501C223.06 61.4501 223.38 61.81 223.38 62.27ZM221.92 71.52V64.3H223.23V71.52H221.92Z" fill="white"/>
<path d="M226.99 62.2301V64.3H228.87V65.3H226.99V69.1901C226.99 70.0801 227.24 70.5901 227.97 70.5901C228.31 70.5901 228.57 70.55 228.73 70.5L228.79 71.4801C228.54 71.5801 228.13 71.66 227.63 71.66C227.02 71.66 226.53 71.4701 226.21 71.1101C225.84 70.7201 225.7 70.0801 225.7 69.2301V65.29H224.58V64.29H225.7V62.5601L226.98 62.2201L226.99 62.2301Z" fill="white"/>
<path d="M230.82 64.3L232.4 68.5601C232.56 69.0401 232.74 69.6 232.86 70.04H232.89C233.02 69.61 233.17 69.06 233.35 68.53L234.78 64.3H236.17L234.2 69.4401C233.26 71.9101 232.62 73.1801 231.73 73.9601C231.09 74.5301 230.45 74.7501 230.12 74.8101L229.79 73.7101C230.12 73.6101 230.55 73.4001 230.94 73.0701C231.3 72.7901 231.74 72.2801 232.04 71.6101C232.1 71.4801 232.14 71.37 232.14 71.3C232.14 71.23 232.11 71.1201 232.05 70.9601L229.38 64.3101H230.81L230.82 64.3Z" fill="white"/>
<path d="M236.51 73.3501C236.84 72.4701 237.24 70.88 237.4 69.79L238.86 69.64C238.52 70.91 237.86 72.56 237.44 73.26L236.5 73.3501H236.51Z" fill="white"/>
<path d="M41.2999 89.41L41.2 88.5H41.1599C40.7599 89.07 39.98 89.5701 38.95 89.5701C37.49 89.5701 36.74 88.54 36.74 87.5C36.74 85.76 38.29 84.8001 41.08 84.8201V84.67C41.08 84.07 40.9199 83 39.4399 83C38.7699 83 38.0699 83.21 37.5599 83.54L37.26 82.6801C37.86 82.2901 38.72 82.04 39.63 82.04C41.84 82.04 42.37 83.5501 42.37 84.9901V87.6901C42.37 88.3201 42.4 88.93 42.49 89.42H41.2999V89.41ZM41.1 85.7301C39.67 85.7001 38.0399 85.9501 38.0399 87.3501C38.0399 88.2001 38.61 88.6001 39.28 88.6001C40.22 88.6001 40.82 88 41.02 87.39C41.06 87.26 41.09 87.1101 41.09 86.9701V85.7201L41.1 85.7301Z" fill="white"/>
<path d="M44.49 84.14C44.49 83.39 44.4799 82.7801 44.4299 82.1901H45.59L45.6599 83.38H45.6899C46.0499 82.69 46.8799 82.02 48.0699 82.02C49.0699 82.02 50.62 82.6201 50.62 85.0901V89.4H49.3099V85.2401C49.3099 84.0801 48.88 83.1101 47.64 83.1101C46.77 83.1101 46.1 83.7201 45.88 84.4501C45.82 84.6101 45.7899 84.8401 45.7899 85.0601V89.4H44.48V84.14H44.49Z" fill="white"/>
<path d="M58.99 78.8201V87.54C58.99 88.18 59.01 88.91 59.05 89.4H57.87L57.81 88.15H57.7801C57.3801 88.95 56.5 89.5701 55.32 89.5701C53.58 89.5701 52.23 88.09 52.23 85.9C52.22 83.5 53.71 82.02 55.47 82.02C56.57 82.02 57.3201 82.5401 57.6501 83.1201H57.68V78.8101H58.99V78.8201ZM57.68 85.13C57.68 84.97 57.67 84.7401 57.62 84.5801C57.43 83.7501 56.71 83.0601 55.73 83.0601C54.37 83.0601 53.57 84.2501 53.57 85.8501C53.57 87.3101 54.28 88.52 55.7 88.52C56.58 88.52 57.38 87.9401 57.62 86.9501C57.66 86.7701 57.68 86.59 57.68 86.38V85.13Z" fill="white"/>
<path d="M64.33 84.14C64.33 83.39 64.32 82.7801 64.27 82.1901H65.4299L65.5 83.38H65.53C65.89 82.69 66.7199 82.02 67.9099 82.02C68.9099 82.02 70.46 82.6201 70.46 85.0901V89.4H69.15V85.2401C69.15 84.0801 68.72 83.1101 67.48 83.1101C66.61 83.1101 65.94 83.7201 65.72 84.4501C65.66 84.6101 65.63 84.8401 65.63 85.0601V89.4H64.3199V84.14H64.33Z" fill="white"/>
<path d="M76.6 89.41L76.5 88.5H76.46C76.06 89.07 75.28 89.5701 74.25 89.5701C72.79 89.5701 72.0399 88.54 72.0399 87.5C72.0399 85.76 73.59 84.8001 76.38 84.8201V84.67C76.38 84.07 76.22 83 74.74 83C74.07 83 73.37 83.21 72.86 83.54L72.5599 82.6801C73.1599 82.2901 74.0199 82.04 74.9299 82.04C77.1399 82.04 77.6699 83.5501 77.6699 84.9901V87.6901C77.6699 88.3201 77.6999 88.93 77.7899 89.42H76.6V89.41ZM76.4 85.7301C74.97 85.7001 73.34 85.9501 73.34 87.3501C73.34 88.2001 73.91 88.6001 74.58 88.6001C75.52 88.6001 76.1199 88 76.3199 87.39C76.3599 87.26 76.39 87.1101 76.39 86.9701V85.7201L76.4 85.7301Z" fill="white"/>
<path d="M81.37 80.1201V82.1901H83.25V83.1901H81.37V87.0801C81.37 87.9701 81.62 88.4801 82.35 88.4801C82.69 88.4801 82.95 88.44 83.11 88.39L83.1699 89.3701C82.9199 89.4701 82.51 89.55 82.01 89.55C81.4 89.55 80.91 89.36 80.59 89C80.22 88.61 80.08 87.9701 80.08 87.1201V83.1801H78.96V82.1801H80.08V80.4501L81.36 80.1101L81.37 80.1201Z" fill="white"/>
<path d="M90.76 87.4401C90.76 88.1901 90.7699 88.84 90.8199 89.41H89.6599L89.59 88.2301H89.5599C89.2199 88.8101 88.4599 89.5701 87.1799 89.5701C86.0499 89.5701 84.6899 88.94 84.6899 86.41V82.1901H86V86.1901C86 87.5601 86.42 88.4901 87.61 88.4901C88.49 88.4901 89.1 87.88 89.34 87.3C89.42 87.11 89.46 86.87 89.46 86.63V82.2001H90.77V87.4501L90.76 87.4401Z" fill="white"/>
<path d="M92.9399 84.4401C92.9399 83.5901 92.93 82.8601 92.88 82.1901H94.03L94.0699 83.6101H94.13C94.46 82.6401 95.25 82.03 96.13 82.03C96.28 82.03 96.38 82.0401 96.5 82.0701V83.3101C96.37 83.2801 96.2299 83.27 96.0499 83.27C95.1299 83.27 94.4699 83.9701 94.2899 84.9501C94.2599 85.1301 94.23 85.3401 94.23 85.5601V89.41H92.9299V84.4501L92.9399 84.4401Z" fill="white"/>
<path d="M98.5399 86.04C98.5699 87.81 99.7 88.54 101.02 88.54C101.96 88.54 102.52 88.38 103.02 88.17L103.24 89.1101C102.78 89.3201 101.99 89.5601 100.84 89.5601C98.62 89.5601 97.2899 88.1 97.2899 85.92C97.2899 83.74 98.5699 82.03 100.67 82.03C103.03 82.03 103.65 84.1001 103.65 85.4301C103.65 85.7001 103.62 85.91 103.61 86.04H98.5399ZM102.39 85.1001C102.4 84.2701 102.05 82.9701 100.57 82.9701C99.2399 82.9701 98.6599 84.1901 98.5599 85.1001H102.39Z" fill="white"/>
<path d="M109.9 80.16C109.92 80.61 109.59 80.9701 109.07 80.9701C108.61 80.9701 108.28 80.61 108.28 80.16C108.28 79.71 108.62 79.3401 109.1 79.3401C109.58 79.3401 109.9 79.7 109.9 80.16ZM108.44 89.41V82.1901H109.75V89.41H108.44Z" fill="white"/>
<path d="M111.75 88.0701C112.14 88.3201 112.82 88.5901 113.48 88.5901C114.43 88.5901 114.88 88.11 114.88 87.52C114.88 86.89 114.51 86.5501 113.54 86.1901C112.24 85.7301 111.63 85.01 111.63 84.15C111.63 82.99 112.57 82.03 114.12 82.03C114.85 82.03 115.49 82.2401 115.89 82.4801L115.56 83.4301C115.28 83.2501 114.76 83.01 114.08 83.01C113.3 83.01 112.87 83.4601 112.87 83.9901C112.87 84.5901 113.3 84.8501 114.24 85.2101C115.49 85.6901 116.13 86.31 116.13 87.39C116.13 88.66 115.15 89.55 113.43 89.55C112.64 89.55 111.91 89.3601 111.4 89.0601L111.73 88.0601L111.75 88.0701Z" fill="white"/>
<path d="M120.99 84.14C120.99 83.39 120.98 82.7801 120.93 82.1901H122.09L122.16 83.38H122.19C122.55 82.69 123.38 82.02 124.57 82.02C125.57 82.02 127.12 82.6201 127.12 85.0901V89.4H125.81V85.2401C125.81 84.0801 125.38 83.1101 124.14 83.1101C123.27 83.1101 122.6 83.7201 122.38 84.4501C122.32 84.6101 122.29 84.8401 122.29 85.0601V89.4H120.98V84.14H120.99Z" fill="white"/>
<path d="M135.79 85.7401C135.79 88.4101 133.94 89.5701 132.2 89.5701C130.25 89.5701 128.74 88.1401 128.74 85.8601C128.74 83.4401 130.32 82.03 132.32 82.03C134.32 82.03 135.79 83.5401 135.79 85.7401ZM130.07 85.8101C130.07 87.3901 130.98 88.5801 132.26 88.5801C133.54 88.5801 134.45 87.4 134.45 85.78C134.45 84.56 133.84 83.01 132.29 83.01C130.74 83.01 130.07 84.4401 130.07 85.8101Z" fill="white"/>
<path d="M146.84 78.8201V87.54C146.84 88.18 146.86 88.91 146.9 89.4H145.72L145.66 88.15H145.63C145.23 88.95 144.35 89.5701 143.17 89.5701C141.43 89.5701 140.08 88.09 140.08 85.9C140.07 83.5 141.56 82.02 143.32 82.02C144.42 82.02 145.17 82.5401 145.5 83.1201H145.53V78.8101H146.84V78.8201ZM145.53 85.13C145.53 84.97 145.52 84.7401 145.47 84.5801C145.28 83.7501 144.56 83.0601 143.58 83.0601C142.22 83.0601 141.42 84.2501 141.42 85.8501C141.42 87.3101 142.13 88.52 143.55 88.52C144.43 88.52 145.23 87.9401 145.47 86.9501C145.51 86.7701 145.53 86.59 145.53 86.38V85.13Z" fill="white"/>
<path d="M155.06 87.4401C155.06 88.1901 155.07 88.84 155.12 89.41H153.96L153.89 88.2301H153.86C153.52 88.8101 152.76 89.5701 151.48 89.5701C150.35 89.5701 148.99 88.94 148.99 86.41V82.1901H150.3V86.1901C150.3 87.5601 150.72 88.4901 151.91 88.4901C152.79 88.4901 153.4 87.88 153.64 87.3C153.72 87.11 153.76 86.87 153.76 86.63V82.2001H155.07V87.4501L155.06 87.4401Z" fill="white"/>
<path d="M157.23 84.14C157.23 83.39 157.22 82.7801 157.17 82.1901H158.32L158.38 83.3501H158.42C158.82 82.6601 159.49 82.02 160.69 82.02C161.67 82.02 162.42 82.6201 162.73 83.4701H162.76C162.98 83.0701 163.27 82.75 163.56 82.53C163.99 82.2 164.47 82.02 165.16 82.02C166.11 82.02 167.53 82.65 167.53 85.15V89.4H166.25V85.3201C166.25 83.9301 165.74 83.1001 164.68 83.1001C163.93 83.1001 163.35 83.65 163.13 84.29C163.07 84.47 163.03 84.7101 163.03 84.9501V89.41H161.75V85.0901C161.75 83.9401 161.24 83.1101 160.24 83.1101C159.42 83.1101 158.82 83.77 158.62 84.42C158.55 84.61 158.52 84.8401 158.52 85.0601V89.41H157.24V84.15L157.23 84.14Z" fill="white"/>
<path d="M169.66 84.14C169.66 83.39 169.65 82.7801 169.6 82.1901H170.75L170.81 83.3501H170.85C171.25 82.6601 171.92 82.02 173.12 82.02C174.1 82.02 174.85 82.6201 175.16 83.4701H175.19C175.41 83.0701 175.7 82.75 175.99 82.53C176.42 82.2 176.9 82.02 177.59 82.02C178.54 82.02 179.96 82.65 179.96 85.15V89.4H178.68V85.3201C178.68 83.9301 178.17 83.1001 177.11 83.1001C176.36 83.1001 175.78 83.65 175.56 84.29C175.5 84.47 175.46 84.7101 175.46 84.9501V89.41H174.18V85.0901C174.18 83.9401 173.67 83.1101 172.67 83.1101C171.85 83.1101 171.25 83.77 171.05 84.42C170.98 84.61 170.95 84.8401 170.95 85.0601V89.41H169.67V84.15L169.66 84.14Z" fill="white"/>
<path d="M182.58 82.1901L184.16 86.4501C184.32 86.9301 184.5 87.4901 184.62 87.9301H184.65C184.78 87.5001 184.93 86.95 185.11 86.42L186.54 82.1901H187.93L185.96 87.3301C185.02 89.8001 184.38 91.0701 183.49 91.8501C182.85 92.4201 182.21 92.6401 181.88 92.7001L181.55 91.6001C181.88 91.5001 182.31 91.2901 182.7 90.9601C183.06 90.6801 183.5 90.17 183.8 89.5C183.86 89.37 183.9 89.2601 183.9 89.1901C183.9 89.1201 183.87 89.0101 183.81 88.8501L181.14 82.2001H182.57L182.58 82.1901Z" fill="white"/>
<path d="M188.81 88.63C188.81 88.08 189.18 87.6901 189.7 87.6901C190.22 87.6901 190.58 88.08 190.58 88.63C190.58 89.18 190.24 89.5701 189.69 89.5701C189.17 89.5701 188.81 89.17 188.81 88.63Z" fill="white"/>
</svg>
