<svg width="333" height="349" viewBox="0 0 333 349" fill="none" xmlns="http://www.w3.org/2000/svg">
<path d="M68.9838 86.25C68.9838 86.25 48.2337 104.27 41.6237 116.75C38.4937 127.32 36.6738 138.41 34.8838 149.55C33.1138 160.58 36.1238 176.06 44.9838 183.51C51.7438 189.2 59.1638 191.56 66.8538 192.56C74.3938 193.54 81.9438 194.28 89.4838 195.23C95.7338 196.02 101.974 196.91 108.214 197.86C114.184 198.77 120.164 199.61 126.094 200.85C132.184 202.12 138.134 204.3 143.554 208.68C146.704 211.23 149.374 214.49 150.824 219.44C151.364 221.29 151.194 222.71 150.194 224.07C147.364 227.9 144.284 231.19 140.284 231.77C132.604 232.89 124.924 234.05 117.224 234.65C108.474 235.33 99.7037 235.51 90.9337 235.7C83.6137 235.86 76.2937 235.79 68.9737 235.73C61.7537 235.67 54.5537 234.99 47.4637 233.05C39.2337 230.8 31.4037 227 24.3337 220.35C9.08373 206.01 4.39373 184.13 8.14373 159.95C9.44373 151.59 11.1737 143.37 12.6637 135.08C12.9037 133.74 12.9637 132.33 13.1137 130.95C12.9337 130.86 12.7538 130.78 12.5738 130.69C12.0838 132.14 11.4738 133.53 11.1338 135.04C9.06375 144.38 6.91374 153.7 5.06374 163.13C2.13374 178.07 -0.766262 193.07 0.183738 208.86C0.543738 214.81 1.20375 220.72 2.97375 226.19C7.64375 240.59 15.2537 250.74 25.3337 257.25C36.1437 264.23 47.6637 266.32 59.3437 266.83C67.5137 267.19 75.6937 266.76 83.8737 266.58C90.5237 266.44 97.1837 266.33 103.834 265.9C113.274 265.29 122.724 264.61 132.154 263.56C137.024 263.02 141.334 260.29 144.744 254.92C147.264 250.97 149.704 246.95 151.084 241.98C152.414 237.17 153.464 232.19 154.544 227.25C156.444 218.51 158.484 209.78 158.834 200.54C159.184 191.41 156.834 184.08 151.374 179.01C147.254 175.19 142.654 173.08 137.924 171.45C127.564 167.89 116.934 167.23 106.394 165.7C101.664 165.02 96.9137 164.58 92.1737 163.98C86.7337 163.29 81.2937 162.46 75.8437 161.85C68.3737 161 61.0537 159.28 54.1637 154.9C48.7438 151.46 44.8837 145.83 42.5837 137.18C44.5437 136.36 46.3137 135.26 48.1537 134.91C48.1537 134.91 61.2537 134.1 68.9437 129.85" fill="url(#paint0_linear_8_5214)"/>
<path d="M68.0138 56.7402V299.88H316.774V56.7402H68.0138ZM244.694 228.58H140.094V128.05H244.694V228.58Z" fill="#ECD7C5"/>
<path d="M300.848 236.721L327.881 209.688L300.848 182.656L273.815 209.688L300.848 236.721Z" fill="url(#paint1_linear_8_5214)"/>
<path d="M154.314 30.3301C154.314 30.3301 199.324 52.85 211.784 90.92C224.244 128.98 182.554 128.35 182.554 128.35C182.554 128.35 186.264 134.91 212.804 134.33C239.344 133.75 267.404 87.39 254.894 54.12C242.384 20.85 205.494 0 205.494 0L154.304 30.34L154.314 30.3301Z" fill="url(#paint2_linear_8_5214)"/>
<path d="M274.094 318.32C274.094 318.32 231.204 298.82 218.224 263.65C205.244 228.48 244.264 227.62 244.264 227.62C244.264 227.62 240.564 221.62 215.764 223.08C190.964 224.55 166.324 268.89 179.184 299.57C192.044 330.25 227.274 348.47 227.274 348.47L274.094 318.31V318.32Z" fill="url(#paint3_linear_8_5214)"/>
<path d="M244.594 205.05C244.704 194.79 244.814 184.52 244.924 174.26C244.924 173.33 245.684 172.58 246.604 172.58C246.784 172.58 246.964 172.58 247.144 172.58C268.754 172.32 309.274 172.09 330.884 171.74C331.604 171.73 332.244 171.25 332.464 170.56V117.01C332.564 113.67 332.034 89.5701 332.464 86.2501C332.804 83.6001 331.984 80.8302 329.554 77.4602C328.924 76.5902 327.624 76.6301 327.034 77.5201L291.694 115.76C291.374 116.82 290.704 117.75 290.654 118.85C290.414 124.34 290.254 129.84 290.044 135.33C289.984 137.05 289.884 138.77 289.794 140.54C289.744 141.49 288.954 142.24 288.004 142.23H287.984C280.454 142.18 260.934 141.39 253.404 141.3C252.414 141.29 251.754 141.55 251.114 142.34C244.514 150.55 237.864 158.72 231.274 166.94C230.824 167.51 230.524 168.38 230.534 169.11" fill="url(#paint4_linear_8_5214)"/>
<path d="M143.564 208.68C146.714 211.23 149.384 214.49 150.834 219.44C151.374 221.29 151.204 222.71 150.204 224.07C147.374 227.9 144.294 231.19 140.294 231.77C132.614 232.89 124.934 234.05 117.234 234.65C108.484 235.33 99.7137 235.51 90.9437 235.7C83.6237 235.86 76.3038 235.79 68.9838 235.73C61.7638 235.67 54.5637 234.99 47.4737 233.05C39.2437 230.8 31.4137 227 24.3437 220.35C9.09374 206.01 4.40374 184.13 8.15374 159.95C9.45374 151.59 11.1837 143.37 12.6737 135.08C12.9137 133.74 12.9737 132.33 13.1237 130.95C12.9437 130.86 12.7637 130.78 12.5837 130.69C12.0937 132.14 11.4837 133.53 11.1437 135.04C9.07373 144.38 6.92374 153.7 5.07374 163.13C2.14374 178.07 -0.756251 193.07 0.193749 208.86C0.553749 214.81 1.21374 220.72 2.98374 226.19C7.65374 240.59 15.2637 250.74 25.3437 257.25C36.1537 264.23 47.6738 266.32 59.3538 266.83C67.5238 267.19 75.7038 266.76 83.8838 266.58C90.5338 266.44 97.1937 266.33 103.844 265.9C113.284 265.29 122.734 264.61 132.164 263.56C137.034 263.02 141.344 260.29 144.754 254.92C147.274 250.97 149.714 246.95 151.094 241.98C152.424 237.17 153.474 232.19 154.554 227.25C156.454 218.51 158.494 209.78 158.844 200.54C159.194 191.41 156.844 184.08 151.384 179.01C147.264 175.19 142.664 173.08 137.934 171.45" fill="url(#paint5_linear_8_5214)"/>
<path d="M106.496 118.233L133.529 91.2002L106.496 64.1674L79.4636 91.2001L106.496 118.233Z" fill="url(#paint6_linear_8_5214)"/>
<path d="M162.329 118.23L189.361 91.1978L162.329 64.165L135.296 91.1977L162.329 118.23Z" fill="url(#paint7_linear_8_5214)"/>
<path d="M78.5797 326.921L105.612 299.889L78.5797 272.856L51.547 299.889L78.5797 326.921Z" fill="url(#paint8_linear_8_5214)"/>
<path d="M134.415 326.916L161.448 299.883L134.415 272.851L107.382 299.883L134.415 326.916Z" fill="url(#paint9_linear_8_5214)"/>
<defs>
<linearGradient id="paint0_linear_8_5214" x1="0.0337387" y1="176.6" x2="158.904" y2="176.6" gradientUnits="userSpaceOnUse">
<stop offset="0.04" stop-color="#00B180"/>
<stop offset="0.3" stop-color="#12B6A7"/>
<stop offset="0.61" stop-color="#24BCCF"/>
<stop offset="0.85" stop-color="#2FC0E7"/>
<stop offset="1" stop-color="#34C2F1"/>
</linearGradient>
<linearGradient id="paint1_linear_8_5214" x1="273.823" y1="209.689" x2="327.893" y2="209.689" gradientUnits="userSpaceOnUse">
<stop offset="0.04" stop-color="#00B180"/>
<stop offset="0.3" stop-color="#12B6A7"/>
<stop offset="0.61" stop-color="#24BCCF"/>
<stop offset="0.85" stop-color="#2FC0E7"/>
<stop offset="1" stop-color="#34C2F1"/>
</linearGradient>
<linearGradient id="paint2_linear_8_5214" x1="154.314" y1="67.18" x2="257.964" y2="67.18" gradientUnits="userSpaceOnUse">
<stop offset="0.04" stop-color="#00B180"/>
<stop offset="0.3" stop-color="#12B6A7"/>
<stop offset="0.61" stop-color="#24BCCF"/>
<stop offset="0.85" stop-color="#2FC0E7"/>
<stop offset="1" stop-color="#34C2F1"/>
</linearGradient>
<linearGradient id="paint3_linear_8_5214" x1="175.648" y1="285.04" x2="274.53" y2="286.266" gradientUnits="userSpaceOnUse">
<stop offset="0.04" stop-color="#00B180"/>
<stop offset="0.3" stop-color="#12B6A7"/>
<stop offset="0.61" stop-color="#24BCCF"/>
<stop offset="0.85" stop-color="#2FC0E7"/>
<stop offset="1" stop-color="#34C2F1"/>
</linearGradient>
<linearGradient id="paint4_linear_8_5214" x1="230.524" y1="140.94" x2="332.524" y2="140.94" gradientUnits="userSpaceOnUse">
<stop offset="0.04" stop-color="#00B180"/>
<stop offset="0.3" stop-color="#12B6A7"/>
<stop offset="0.61" stop-color="#24BCCF"/>
<stop offset="0.85" stop-color="#2FC0E7"/>
<stop offset="1" stop-color="#34C2F1"/>
</linearGradient>
<linearGradient id="paint5_linear_8_5214" x1="0.0337484" y1="198.82" x2="158.904" y2="198.82" gradientUnits="userSpaceOnUse">
<stop offset="0.04" stop-color="#00B180"/>
<stop offset="0.3" stop-color="#12B6A7"/>
<stop offset="0.61" stop-color="#24BCCF"/>
<stop offset="0.85" stop-color="#2FC0E7"/>
<stop offset="1" stop-color="#34C2F1"/>
</linearGradient>
<linearGradient id="paint6_linear_8_5214" x1="79.4666" y1="91.2073" x2="133.537" y2="91.2073" gradientUnits="userSpaceOnUse">
<stop offset="0.04" stop-color="#00B180"/>
<stop offset="0.3" stop-color="#12B6A7"/>
<stop offset="0.61" stop-color="#24BCCF"/>
<stop offset="0.85" stop-color="#2FC0E7"/>
<stop offset="1" stop-color="#34C2F1"/>
</linearGradient>
<linearGradient id="paint7_linear_8_5214" x1="135.306" y1="91.2049" x2="189.366" y2="91.2049" gradientUnits="userSpaceOnUse">
<stop offset="0.04" stop-color="#00B180"/>
<stop offset="0.3" stop-color="#12B6A7"/>
<stop offset="0.61" stop-color="#24BCCF"/>
<stop offset="0.85" stop-color="#2FC0E7"/>
<stop offset="1" stop-color="#34C2F1"/>
</linearGradient>
<linearGradient id="paint8_linear_8_5214" x1="51.5395" y1="299.897" x2="105.61" y2="299.898" gradientUnits="userSpaceOnUse">
<stop offset="0.04" stop-color="#00B180"/>
<stop offset="0.3" stop-color="#12B6A7"/>
<stop offset="0.61" stop-color="#24BCCF"/>
<stop offset="0.85" stop-color="#2FC0E7"/>
<stop offset="1" stop-color="#34C2F1"/>
</linearGradient>
<linearGradient id="paint9_linear_8_5214" x1="107.389" y1="299.885" x2="161.449" y2="299.885" gradientUnits="userSpaceOnUse">
<stop offset="0.04" stop-color="#00B180"/>
<stop offset="0.3" stop-color="#12B6A7"/>
<stop offset="0.61" stop-color="#24BCCF"/>
<stop offset="0.85" stop-color="#2FC0E7"/>
<stop offset="1" stop-color="#34C2F1"/>
</linearGradient>
</defs>
</svg>
