<svg width="195" height="139" viewBox="0 0 195 139" fill="none" xmlns="http://www.w3.org/2000/svg">
<path d="M52.1138 0.156735C64.6438 -1.00327 75.0838 6.3967 77.8938 17.4367C78.5638 20.0867 78.6438 22.9367 78.6538 25.6867C78.7038 59.1367 78.6838 92.5967 78.6938 126.047C78.6938 127.577 78.8338 129.117 78.9138 130.797H86.3738C86.4638 129.377 86.6238 128.107 86.6238 126.827C86.6338 92.4067 86.6538 57.9867 86.6238 23.5667C86.6238 13.0967 80.6338 4.83674 70.6838 1.28674C69.9338 1.01674 69.1938 0.686722 68.0238 0.206722C80.9738 -1.48328 94.8237 8.2167 94.7137 24.4967C94.4937 58.5567 94.6438 92.6167 94.6438 126.667C94.6438 127.957 94.6438 129.247 94.6438 130.747H102.264C102.374 129.607 102.574 128.467 102.574 127.317C102.584 92.7767 102.634 58.2367 102.544 23.6967C102.514 12.9967 97.0337 5.37672 87.0837 1.45672C86.2037 1.10672 85.3238 0.766708 84.1538 0.316708C97.2138 -1.41329 109.124 7.95674 110.404 20.6667C110.574 22.3467 110.584 24.0467 110.584 25.7267C110.594 59.1767 110.584 92.6367 110.584 126.087C110.584 127.517 110.584 128.937 110.584 130.657H118.284C118.374 129.217 118.524 127.817 118.524 126.407C118.524 92.3467 118.564 58.2867 118.504 24.2367C118.484 13.0067 112.954 5.2267 102.504 1.2467C101.834 0.9967 101.174 0.706725 100.424 0.396725C108.914 -1.37328 119.364 3.83673 123.784 12.3367C125.794 16.1867 126.514 20.2667 126.504 24.5667C126.464 42.0767 126.484 59.5867 126.484 77.1067C126.484 93.7767 126.484 110.437 126.484 127.107C126.484 128.277 126.624 129.447 126.714 130.767H134.094C134.234 129.787 134.474 128.887 134.474 127.977C134.484 93.3167 134.424 58.6567 134.504 23.9967C134.534 13.0267 127.414 3.82672 117.874 1.07672C117.324 0.916718 116.804 0.626696 115.604 0.116696C123.114 -0.493304 129.164 1.27671 134.334 5.69671C139.544 10.1567 142.114 15.9967 142.574 23.0167H180.664C185.954 18.6267 189.954 18.2667 193.124 21.9567C195.514 24.7367 195.324 29.2767 192.704 31.8667C189.404 35.1467 185.274 34.5567 180.634 30.0367C178.604 30.0367 151.534 30.0367 149.364 30.0367C147.194 30.0367 145.074 30.0367 142.454 30.0367V138.757H70.9938C70.8938 137.057 70.7037 135.327 70.7037 133.587C70.6837 100.617 70.6938 67.6467 70.6938 34.6767C70.6938 31.1767 70.7238 27.6667 70.6838 24.1667C70.5538 12.7367 64.8138 4.80674 53.9438 0.976742C53.5038 0.816742 53.0838 0.586715 52.0938 0.136715L52.1138 0.156735Z" fill="black"/>
<path d="M58.8739 129.626C57.5139 129.556 56.1539 129.416 54.7939 129.416C39.7039 129.416 24.6139 129.416 9.52392 129.476C2.82392 129.506 -1.46615 123.826 0.833855 117.846C1.98385 114.846 4.24389 113.246 7.37389 112.896C8.68389 112.746 10.0239 112.806 11.3539 112.806C25.6039 112.806 39.8439 112.806 54.0939 112.776C55.6839 112.776 57.2639 112.516 58.8539 112.376C58.8339 112.026 58.8139 111.666 58.7939 111.316C57.2939 111.316 55.7839 111.316 54.2839 111.316C40.0339 111.316 25.7939 111.336 11.5439 111.296C9.75394 111.296 7.89394 111.196 6.17394 110.726C2.33394 109.676 0.0738595 106.296 0.21386 102.266C0.33386 98.7065 2.77392 95.7464 6.52392 94.8664C8.03392 94.5164 9.63395 94.3664 11.184 94.3664C27.964 94.3464 44.7439 94.3565 61.5339 94.3965C62.5939 94.3965 63.714 94.5464 64.684 94.9264C66.3139 95.5664 67.0239 96.9164 66.9239 98.6764C66.8139 100.556 65.6238 101.516 63.9538 101.826C62.6638 102.066 61.3139 102.046 59.9839 102.046C44.1639 102.066 28.3539 102.066 12.5339 102.066C11.2439 102.066 9.96394 102.066 8.67394 102.066C8.62394 102.396 8.57392 102.736 8.52392 103.066C9.31392 103.236 10.1039 103.556 10.9039 103.566C15.6139 103.606 20.3239 103.576 25.0339 103.576C35.9039 103.576 46.7639 103.576 57.6339 103.576C61.2539 103.576 64.2339 104.626 66.0239 108.106C68.6739 113.236 65.5139 119.416 59.7739 120.096C58.4639 120.256 57.1239 120.216 55.7939 120.216C41.3039 120.216 26.8139 120.216 12.3339 120.236C10.9439 120.236 9.55391 120.366 8.14391 120.806C9.15391 121.976 10.4639 121.656 11.6439 121.666C26.0139 121.686 40.3739 121.676 54.7439 121.686C56.3139 121.686 57.8938 121.656 59.4538 121.786C63.7338 122.146 67.0339 125.796 67.0139 130.046C66.9939 134.326 63.7039 137.976 59.4839 138.346C58.2839 138.446 57.0739 138.426 55.8639 138.426C39.3239 138.416 22.7839 138.406 6.24389 138.376C5.16389 138.376 4.0539 138.376 3.0039 138.156C1.2739 137.786 0.323869 136.586 0.223869 134.816C0.123869 133.066 1.27385 131.416 3.08385 131.176C5.22386 130.896 7.41385 130.916 9.58385 130.906C24.3139 130.906 39.0439 130.936 53.7739 130.926C55.4839 130.926 57.1839 130.746 58.8939 130.646L58.8739 129.636V129.626Z" fill="black"/>
<path d="M35.4938 33.6468V78.0368H43.3438V33.6668H51.3337V78.0568H59.3237V33.7068C60.6837 33.5868 61.6138 33.4468 62.5538 33.4168C63.9738 33.3768 65.3937 33.4068 67.0737 33.4068V86.0568H27.6338V33.6368H35.4938V33.6468Z" fill="black"/>
<path d="M14.2037 23.2767H67.0638C67.1738 25.4267 67.2637 27.3967 67.3937 29.8267C58.2437 30.3567 49.3637 29.9767 40.4937 30.0667C31.6937 30.1567 22.8938 30.0867 14.1538 30.0867C9.45376 34.5767 5.46376 35.1667 2.15376 31.9167C-0.716244 29.1067 -0.716253 24.2967 2.14375 21.4967C5.44375 18.2667 9.50368 18.7567 14.2037 23.2767Z" fill="black"/>
<path d="M35.3038 19.8567C33.5438 19.8567 31.8538 19.8868 30.1738 19.8368C29.4838 19.8168 28.7938 19.6067 28.1338 19.4967C28.6538 11.0167 38.9438 2.07677 49.8738 3.78677C47.5638 5.09677 45.3638 6.00675 43.5938 7.44675C41.6637 9.01675 39.8738 10.9068 38.4938 12.9768C37.1738 14.9368 36.4538 17.3067 35.3038 19.8567Z" fill="black"/>
<path d="M58.4738 7.01672C55.8438 11.2767 53.3538 15.3167 50.6638 19.6767H44.1638C44.5438 13.4967 49.3537 7.52674 55.7037 5.40674C56.6337 5.94674 57.7438 6.58671 58.4738 7.00671V7.01672Z" fill="black"/>
<path d="M63.5938 11.3467C64.9637 14.4367 66.0038 16.7966 67.2538 19.6166H59.8438C60.1738 16.6566 61.3038 14.3067 63.6038 11.3467H63.5938Z" fill="black"/>
</svg>
