<svg width="362" height="365" viewBox="0 0 362 365" fill="none" xmlns="http://www.w3.org/2000/svg">
<path d="M71.8315 92.3901C71.8315 92.3901 50.2215 111.16 43.3315 124.16C40.0715 135.17 38.1716 146.73 36.3116 158.32C34.4716 169.81 37.6015 185.93 46.8315 193.7C53.8715 199.63 61.6016 202.09 69.6116 203.13C77.4616 204.15 85.3316 204.92 93.1916 205.91C99.7016 206.73 106.202 207.66 112.702 208.65C118.922 209.6 125.142 210.47 131.322 211.76C137.662 213.09 143.862 215.35 149.502 219.91C152.782 222.56 155.562 225.96 157.072 231.12C157.642 233.05 157.462 234.53 156.422 235.94C153.482 239.93 150.262 243.36 146.102 243.96C138.102 245.12 130.102 246.34 122.082 246.96C112.972 247.66 103.832 247.85 94.7016 248.06C87.0816 248.23 79.4515 248.15 71.8315 248.09C64.3115 248.03 56.8116 247.31 49.4316 245.3C40.8616 242.96 32.7115 239 25.3415 232.07C9.45155 217.13 4.57156 194.34 8.48156 169.15C9.83156 160.44 11.6316 151.88 13.1916 143.24C13.4416 141.84 13.5015 140.38 13.6515 138.94C13.4615 138.85 13.2815 138.76 13.0915 138.67C12.5815 140.18 11.9415 141.63 11.5915 143.2C9.44155 152.93 7.20154 162.63 5.27154 172.46C2.22154 188.03 -0.798415 203.64 0.191585 220.1C0.561585 226.3 1.25156 232.46 3.10156 238.15C7.96156 253.15 15.8916 263.72 26.3916 270.5C37.6516 277.77 49.6516 279.95 61.8116 280.48C70.3216 280.85 78.8416 280.4 87.3616 280.22C94.2916 280.07 101.232 279.96 108.152 279.51C117.992 278.88 127.832 278.17 137.642 277.07C142.712 276.51 147.202 273.66 150.762 268.07C153.382 263.95 155.932 259.77 157.362 254.59C158.752 249.58 159.842 244.4 160.972 239.24C162.952 230.13 165.072 221.04 165.442 211.42C165.802 201.91 163.362 194.27 157.672 188.99C153.382 185.01 148.582 182.81 143.662 181.12C132.872 177.41 121.802 176.72 110.822 175.13C105.892 174.42 100.952 173.96 96.0116 173.34C90.3416 172.62 84.6816 171.76 79.0016 171.12C71.2216 170.24 63.5916 168.44 56.4116 163.88C50.7716 160.3 46.7516 154.43 44.3516 145.43C46.3916 144.57 48.2315 143.43 50.1515 143.06C50.1515 143.06 63.7916 142.21 71.8116 137.79" fill="#F69138"/>
<path d="M71.5715 63.5801V300.93H314.402V63.5801H71.5715ZM244.042 231.33H141.932V133.2H244.042V231.33Z" fill="url(#paint0_linear_8_5190)"/>
<path d="M261.769 320.035L288.158 293.646L261.769 267.256L235.38 293.646L261.769 320.035Z" fill="#F69138"/>
<path d="M316.281 320.032L342.671 293.643L316.281 267.254L289.892 293.643L316.281 320.032Z" fill="#F69138"/>
<path d="M72.3896 88.043L98.7788 61.6538L72.3896 35.2646L46.0004 61.6539L72.3896 88.043Z" fill="#F69138"/>
<path d="M126.885 88.0479L153.274 61.6587L126.885 35.2695L100.496 61.6587L126.885 88.0479Z" fill="#F69138"/>
<path d="M148.562 31.36C148.562 31.36 195.071 54.63 207.941 93.96C220.811 133.29 177.742 132.63 177.742 132.63C177.742 132.63 181.572 139.4 208.992 138.8C236.412 138.2 265.412 90.2999 252.482 55.9199C239.562 21.5399 201.441 0 201.441 0L148.552 31.35L148.562 31.36Z" fill="#F69138"/>
<path d="M261.772 333.56C261.772 333.56 215.262 310.29 202.392 270.96C189.512 231.63 232.592 232.29 232.592 232.29C232.592 232.29 228.762 225.52 201.342 226.12C173.922 226.72 144.922 274.62 157.852 309C170.772 343.38 208.892 364.92 208.892 364.92L261.782 333.57L261.772 333.56Z" fill="#F69138"/>
<path d="M296.801 162.22C300.021 162.22 300.021 157.22 296.801 157.22C293.581 157.22 293.581 162.22 296.801 162.22Z" fill="#060707"/>
<path d="M230.052 189.09C230.042 188.38 230.332 187.52 230.772 186.97C237.202 178.94 243.692 170.97 250.142 162.95C250.762 162.18 251.412 161.93 252.372 161.94C259.722 162.03 267.082 162.07 274.432 162.12C274.952 162.12 275.472 162.12 276.112 162.12C276.222 159.8 276.352 157.59 276.442 155.38C276.652 149.87 276.812 144.36 277.052 138.85C277.082 138.11 277.352 137.29 277.762 136.68C286.752 123.48 295.782 110.31 304.822 97.1402C305.112 96.7102 305.442 96.2701 305.842 95.9601C307.262 94.8501 308.352 95.0502 309.352 96.5302C316.052 106.45 323.442 115.83 331.842 124.38C337.632 130.27 343.722 135.82 351.202 139.5C353.872 140.81 356.842 141.55 359.712 142.44C361.042 142.85 361.412 143.2 360.972 144.55C360.732 145.29 360.372 146.01 359.972 146.68C349.642 163.9 339.312 181.11 328.952 198.31C328.322 199.35 327.532 200.32 326.672 201.17C325.402 202.43 324.582 202.26 323.412 200.91C321.412 198.6 319.402 196.28 317.272 194.09C315.522 192.3 313.382 191.59 310.762 191.63C289.272 191.98 267.782 192.21 246.282 192.47C245.632 192.47 244.982 192.47 244.122 192.47C244.122 193.16 244.122 193.64 244.122 194.11C244.012 204.13 243.912 214.15 243.802 224.17" fill="#F69138"/>
<path d="M149.512 219.91C152.792 222.56 155.572 225.96 157.082 231.12C157.652 233.05 157.472 234.53 156.432 235.94C153.492 239.93 150.272 243.36 146.112 243.96C138.112 245.12 130.112 246.34 122.092 246.96C112.982 247.66 103.842 247.85 94.7115 248.06C87.0915 248.23 79.4615 248.15 71.8415 248.09C64.3215 248.03 56.8216 247.31 49.4416 245.3C40.8716 242.96 32.7216 239 25.3516 232.07C9.46156 217.13 4.58157 194.34 8.49157 169.15C9.84157 160.44 11.6416 151.88 13.2016 143.24C13.4516 141.84 13.5116 140.38 13.6616 138.94C13.4716 138.85 13.2916 138.76 13.1016 138.67C12.5916 140.18 11.9516 141.63 11.6016 143.2C9.45156 152.93 7.21155 162.63 5.28155 172.46C2.23155 188.03 -0.788405 203.64 0.201595 220.1C0.571595 226.3 1.26157 232.46 3.11157 238.15C7.97157 253.15 15.9015 263.72 26.4015 270.5C37.6615 277.77 49.6616 279.95 61.8216 280.48C70.3316 280.85 78.8516 280.4 87.3716 280.22C94.3016 280.07 101.242 279.96 108.162 279.51C118.002 278.88 127.842 278.17 137.652 277.07C142.722 276.51 147.212 273.66 150.772 268.07C153.392 263.95 155.942 259.77 157.372 254.59C158.762 249.58 159.852 244.4 160.982 239.24C162.962 230.13 165.082 221.04 165.452 211.42C165.812 201.91 163.372 194.27 157.682 188.99C153.392 185.01 148.592 182.81 143.672 181.12" fill="#F69138"/>
<defs>
<linearGradient id="paint0_linear_8_5190" x1="341.592" y1="62.2601" x2="-197.158" y2="497.31" gradientUnits="userSpaceOnUse">
<stop offset="0.04" stop-color="#D07EB3"/>
<stop offset="0.07" stop-color="#D177A8"/>
<stop offset="0.23" stop-color="#DC5370"/>
<stop offset="0.37" stop-color="#E33948"/>
<stop offset="0.49" stop-color="#E82930"/>
<stop offset="0.56" stop-color="#EA2427"/>
</linearGradient>
</defs>
</svg>
