<svg width="353" height="98" viewBox="0 0 353 98" fill="none" xmlns="http://www.w3.org/2000/svg">
<path d="M93.67 48.0302L101.16 30.8902C102.6 27.6102 105.88 25.4502 109.58 25.4502C115.22 25.4502 119.84 30.0702 119.84 35.8202C119.84 41.5702 115.22 46.0801 109.58 46.0801H108.35C101.88 46.0801 96.03 46.3901 93.67 52.3401V72.9702H73.04V25.4502H93.67V48.0302Z" fill="#F69138"/>
<path d="M147.65 77.07H168.38V97.6H123.32V77.07H145.8V73.7901C132.25 73.7901 121.27 62.8101 121.27 49.2601C121.27 35.7101 132.25 24.6301 145.8 24.6301C159.35 24.6301 170.43 35.6101 170.43 49.2601C170.43 62.1901 160.47 72.76 147.65 73.69V77.08V77.07ZM149.81 49.2601C149.81 47.0001 148.07 45.2601 145.81 45.2601C143.55 45.2601 141.91 47.0001 141.91 49.2601C141.91 51.5201 143.65 53.2601 145.81 53.2601C147.97 53.2601 149.81 51.4101 149.81 49.2601ZM161.72 25.35C161.72 22.99 163.67 21.04 166.03 21.04C168.39 21.04 170.44 22.99 170.44 25.35C170.44 27.71 168.49 29.7601 166.03 29.7601C163.57 29.7601 161.72 27.81 161.72 25.35Z" fill="#F69138"/>
<path d="M217.55 25.5501H220.94V72.9701H219.2V58.4001C215.61 67.4301 206.78 73.8002 196.42 73.8002C182.87 73.8002 171.89 62.8201 171.89 49.2701C171.89 35.7201 182.87 24.6401 196.42 24.6401C202.27 24.6401 207.71 26.8001 211.92 30.1801L217.56 25.5601L217.55 25.5501ZM200.41 49.2601C200.41 47.0001 198.56 45.2601 196.41 45.2601C194.26 45.2601 192.41 47.0001 192.41 49.2601C192.41 51.5201 194.26 53.2601 196.41 53.2601C198.56 53.2601 200.41 51.4101 200.41 49.2601Z" fill="#F69138"/>
<path d="M255.72 28.6299C258.39 25.8599 261.57 24.6299 264.75 24.6299C271.22 24.6299 277.27 30.1698 277.37 38.2798V72.8699H256.74V38.2798C256.74 35.9198 254.79 34.0698 252.33 34.2798C251.82 34.2798 248.64 36.8499 245.56 39.5099V72.9698H225.03V25.4499H245.56V37.6599L255.72 28.6299Z" fill="#F69138"/>
<path d="M302.83 10.67C302.83 16.62 298.11 21.34 292.16 21.34C286.21 21.34 281.49 16.62 281.49 10.67C281.49 4.71998 286.31 0 292.16 0C298.01 0 302.83 4.81998 302.83 10.67ZM281.89 72.97V25.45H302.42V72.97H281.89Z" fill="#F69138"/>
<path d="M327.46 49.2601C327.46 51.4201 329.31 53.2601 331.46 53.2601C332.69 53.2601 333.72 52.7502 334.44 51.9302L352.3 62.3002C347.99 69.1802 340.29 73.8002 331.47 73.8002C317.92 73.8002 306.94 62.8201 306.94 49.2701C306.94 35.7201 317.92 24.6401 331.47 24.6401C340.3 24.6401 347.99 29.2601 352.3 36.2401L334.44 46.5001C333.72 45.7801 332.7 45.2701 331.46 45.2701C329.3 45.2701 327.46 47.0101 327.46 49.2701V49.2601Z" fill="#F69138"/>
<path d="M64.8701 12.1702C66.8701 27.3602 58.3201 35.9002 43.3001 33.9402C42.7801 27.2802 43.11 20.8502 48.66 16.0502C52.23 12.9602 56.6 12.0802 61.22 12.1702C62.42 12.1902 63.6201 12.1702 64.8701 12.1702Z" fill="url(#paint0_linear_8_5169)"/>
<path d="M32 74.5C14.35 74.5 0 60.14 0 42.5C0 24.86 14.36 10.5 32 10.5H32.27L37.33 10.81H38.14V28.31H36.79L31.76 28C23.87 28.13 17.49 34.58 17.49 42.5C17.49 50.42 24 57 31.99 57C39.98 57 46.49 50.49 46.49 42.5V39.43H63.99V42.5C63.99 60.15 49.63 74.5 31.99 74.5H32Z" fill="#F69138"/>
<path d="M174.4 93.7297V79.7998H183.33V82.2898H177.12V85.6298H182.29V88.1198H177.12V93.7297H174.39H174.4Z" fill="url(#paint1_linear_8_5169)"/>
<path d="M184.85 93.7297V83.7798H187.48V93.7297H184.85ZM186.7 88.4998C186.7 87.4298 186.91 86.5397 187.33 85.8297C187.75 85.1297 188.29 84.5998 188.94 84.2598C189.6 83.9198 190.28 83.7397 191 83.7397V86.2898C190.39 86.2898 189.82 86.3598 189.28 86.5098C188.74 86.6598 188.31 86.8897 187.98 87.2297C187.65 87.5597 187.48 87.9898 187.48 88.4998H186.7Z" fill="url(#paint2_linear_8_5169)"/>
<path d="M192.21 88.8698V83.7798H194.84V88.8698H192.21ZM194.83 88.8698C194.83 89.5298 194.91 90.0498 195.06 90.4298C195.21 90.8098 195.43 91.0798 195.72 91.2498C196.01 91.4198 196.33 91.4998 196.68 91.4998C197.37 91.5098 197.89 91.2998 198.25 90.8698C198.61 90.4398 198.79 89.8097 198.79 88.9897H199.68C199.68 90.0497 199.52 90.9497 199.2 91.6897C198.88 92.4297 198.44 92.9898 197.89 93.3798C197.33 93.7698 196.68 93.9697 195.92 93.9697C195.12 93.9697 194.45 93.8097 193.89 93.4897C193.33 93.1697 192.91 92.6798 192.63 92.0098C192.34 91.3398 192.2 90.4698 192.2 89.4098V88.8698H194.83ZM198.95 93.7297L198.79 91.8998V83.7798H201.42V93.7297H198.95Z" fill="url(#paint3_linear_8_5169)"/>
<path d="M205.16 82.1699C204.76 82.1699 204.41 82.0198 204.11 81.7198C203.81 81.4198 203.65 81.0699 203.65 80.6599C203.65 80.2499 203.8 79.8899 204.11 79.5999C204.42 79.3099 204.77 79.1499 205.16 79.1499C205.55 79.1499 205.93 79.2999 206.22 79.5999C206.51 79.8999 206.67 80.2499 206.67 80.6599C206.67 81.0699 206.52 81.4298 206.22 81.7198C205.92 82.0098 205.57 82.1699 205.16 82.1699ZM203.85 93.7299V83.7799H206.48V93.7299H203.85Z" fill="url(#paint4_linear_8_5169)"/>
<path d="M208.05 86.0099V83.7799H214.77V86.0099H208.05ZM213 93.9698C211.9 93.9698 211.07 93.6999 210.5 93.1499C209.94 92.6099 209.65 91.8298 209.65 90.8198V80.6699H212.28V90.2399C212.28 90.6599 212.37 90.9898 212.56 91.1998C212.75 91.4198 213.02 91.5299 213.38 91.5299C213.51 91.5299 213.66 91.4998 213.82 91.4398C213.98 91.3798 214.14 91.2899 214.32 91.1699L215.24 93.1399C214.92 93.3799 214.57 93.5699 214.18 93.7299C213.79 93.8899 213.4 93.9598 213.02 93.9598L213 93.9698Z" fill="url(#paint5_linear_8_5169)"/>
<path d="M220.62 93.97C219.98 93.97 219.39 93.8701 218.83 93.6801C218.27 93.4901 217.78 93.21 217.36 92.84C216.94 92.48 216.6 92.03 216.36 91.5L218.61 90.47C218.81 90.79 219.08 91.06 219.43 91.3C219.77 91.53 220.17 91.65 220.62 91.65C221.07 91.65 221.4 91.59 221.63 91.46C221.87 91.33 221.99 91.15 221.99 90.91C221.99 90.67 221.89 90.5 221.7 90.38C221.51 90.27 221.24 90.17 220.91 90.09L219.99 89.85C219.03 89.6 218.28 89.2 217.73 88.65C217.18 88.1 216.9 87.47 216.9 86.75C216.9 85.73 217.23 84.94 217.88 84.38C218.53 83.82 219.47 83.54 220.68 83.54C221.3 83.54 221.88 83.6299 222.42 83.8199C222.96 84.0099 223.42 84.26 223.8 84.6C224.18 84.94 224.45 85.32 224.6 85.75L222.43 86.75C222.34 86.48 222.11 86.27 221.75 86.1C221.39 85.93 221.03 85.85 220.68 85.85C220.33 85.85 220.05 85.93 219.85 86.08C219.65 86.23 219.56 86.44 219.56 86.71C219.56 86.88 219.65 87.03 219.84 87.14C220.03 87.25 220.29 87.3501 220.64 87.4301L221.93 87.75C222.58 87.91 223.1 88.16 223.49 88.52C223.88 88.87 224.17 89.2599 224.35 89.6899C224.53 90.1199 224.62 90.54 224.62 90.95C224.62 91.55 224.44 92.07 224.09 92.53C223.74 92.99 223.26 93.34 222.66 93.59C222.06 93.84 221.37 93.97 220.6 93.97H220.62Z" fill="url(#paint6_linear_8_5169)"/>
<defs>
<linearGradient id="paint0_linear_8_5169" x1="43.1201" y1="23.1902" x2="65.1601" y2="23.1902" gradientUnits="userSpaceOnUse">
<stop stop-color="#339445"/>
<stop offset="0.96" stop-color="#9BC93C"/>
</linearGradient>
<linearGradient id="paint1_linear_8_5169" x1="171.2" y1="86.7598" x2="342.339" y2="86.7598" gradientUnits="userSpaceOnUse">
<stop stop-color="#339445"/>
<stop offset="0.96" stop-color="#9BC93C"/>
</linearGradient>
<linearGradient id="paint2_linear_8_5169" x1="171.2" y1="88.7297" x2="342.34" y2="88.7297" gradientUnits="userSpaceOnUse">
<stop stop-color="#339445"/>
<stop offset="0.96" stop-color="#9BC93C"/>
</linearGradient>
<linearGradient id="paint3_linear_8_5169" x1="171.2" y1="88.8698" x2="342.341" y2="88.8698" gradientUnits="userSpaceOnUse">
<stop stop-color="#339445"/>
<stop offset="0.96" stop-color="#9BC93C"/>
</linearGradient>
<linearGradient id="paint4_linear_8_5169" x1="171.2" y1="86.4399" x2="342.341" y2="86.4399" gradientUnits="userSpaceOnUse">
<stop stop-color="#339445"/>
<stop offset="0.96" stop-color="#9BC93C"/>
</linearGradient>
<linearGradient id="paint5_linear_8_5169" x1="171.199" y1="87.3199" x2="342.341" y2="87.3199" gradientUnits="userSpaceOnUse">
<stop stop-color="#339445"/>
<stop offset="0.96" stop-color="#9BC93C"/>
</linearGradient>
<linearGradient id="paint6_linear_8_5169" x1="171.2" y1="88.75" x2="342.34" y2="88.75" gradientUnits="userSpaceOnUse">
<stop stop-color="#339445"/>
<stop offset="0.96" stop-color="#9BC93C"/>
</linearGradient>
</defs>
</svg>
