<svg width="114" height="94" viewBox="0 0 114 94" fill="none" xmlns="http://www.w3.org/2000/svg">
<path d="M110.384 0.205533C111.244 -0.504467 112.845 0.775552 113.065 1.75555C113.295 2.81555 113.235 6.38555 112.695 7.28555C112.595 7.45555 111.944 8.11554 111.884 8.11554H105.195V71.4655C94.5546 71.4655 83.8946 71.4655 73.2446 71.4655C71.0646 71.4655 68.8746 71.4655 66.6946 71.4655C59.9646 71.4655 53.2146 71.4655 46.4846 71.4655C44.3046 71.4655 42.1145 71.4655 39.9345 71.4655C29.2945 71.4655 18.6346 71.4655 7.9846 71.4655V8.11554H1.29453C1.23453 8.11554 0.584595 7.44555 0.484595 7.28555C-0.115405 6.27555 -0.16539 2.18555 0.37461 1.19555C0.67461 0.635554 1.28459 0.0755334 1.97459 0.205533H110.384ZM101.105 8.12555H12.0846V67.3856H101.105V8.12555Z" fill="#161616"/>
<path d="M73.2545 71.4756L80.9045 92.6356C80.9545 93.1556 80.9046 93.0256 80.4946 93.0456C78.4046 93.1356 76.1946 92.7756 74.1946 93.3256L73.7845 93.2056L66.6946 71.4756C68.8746 71.4756 71.0646 71.4756 73.2446 71.4756H73.2545Z" fill="black"/>
<path d="M46.4947 71.4756L39.6446 93.0256C39.2046 93.0956 38.7446 93.0256 38.3046 93.0456L38.1646 92.7756H37.8946L37.7546 93.0456C36.1146 93.0756 34.3346 93.1156 32.6946 93.0456C32.2746 93.0256 32.2346 93.1556 32.2846 92.6356L39.9346 71.4756C42.1146 71.4756 44.3047 71.4756 46.4847 71.4756H46.4947Z" fill="black"/>
<path d="M38.2946 93.0456C38.1146 93.0456 37.9346 93.0456 37.7446 93.0456L37.8845 92.7756H38.1545L38.2946 93.0456Z" fill="#1A2329"/>
<path d="M42.6645 16.8655C51.4645 17.1855 59.4445 25.8155 59.0445 34.6155C57.0345 34.3455 42.4346 35.0755 41.9646 34.3555C41.8246 34.1355 41.8446 33.9155 41.8346 33.6655C41.4646 28.5455 42.1346 22.9855 41.8346 17.8055L42.6645 16.8555V16.8655Z" fill="#FFF4E3"/>
<path d="M65.1146 17.1955C65.3146 16.9955 65.9645 16.8855 66.2745 16.8555H91.1445C93.1445 17.0655 92.9246 19.5755 90.8646 19.6055L65.6645 19.3855C64.7445 19.0955 64.4646 17.8355 65.1046 17.1955H65.1146Z" fill="black"/>
<path d="M65.1146 34.9455C65.3146 34.7455 65.9645 34.6355 66.2745 34.6055H91.1445C93.1445 34.8155 92.9246 37.3255 90.8646 37.3555L65.6645 37.1355C64.8645 36.8055 64.4946 35.5555 65.1046 34.9455H65.1146Z" fill="black"/>
<path d="M66.0646 28.6555L90.8746 28.5955C92.7846 28.7255 93.2045 30.6354 91.4145 31.3354H66.0145C64.3645 30.7654 64.4746 29.2055 66.0746 28.6555H66.0646Z" fill="#161616"/>
<path d="M66.0146 22.8655H91.6846C92.5546 22.8655 92.5546 25.3255 91.6846 25.3255H65.7447C64.9847 25.3255 64.6246 23.0455 66.0146 22.8655Z" fill="black"/>
<path d="M42.6646 16.8655L41.8346 17.8155C42.1346 22.9855 41.4646 28.5455 41.8346 33.6755C41.8546 33.9155 41.8246 34.1455 41.9646 34.3655C42.4346 35.0855 57.0346 34.3555 59.0446 34.6255C59.0446 34.8055 59.0446 34.9955 59.0446 35.1755H41.5646V16.8755C41.9246 16.8755 42.2945 16.8655 42.6545 16.8755L42.6646 16.8655Z" fill="#B72E35"/>
<path d="M39.3845 16.5854C27.9145 16.5854 18.6246 25.8855 18.6246 37.3455C18.6246 48.8055 27.9245 58.1054 39.3845 58.1054C50.8445 58.1054 60.1445 48.8055 60.1445 37.3455H39.3845V16.5854Z" fill="#FFF4E3"/>
<path d="M82.6746 48.8655L79.9446 51.9855V64.1755H85.4045V51.9855L82.6746 48.8655Z" fill="#FFF4E3"/>
<path d="M64.0846 41.6956L61.3546 44.8055V64.1755H66.8146V44.8055L64.0846 41.6956Z" fill="#FFF4E3"/>
<path d="M91.8246 55.4756L89.0846 58.5956V64.1756H94.5546V58.5956L91.8246 55.4756Z" fill="#FFF4E3"/>
<path d="M73.3945 55.4756L70.6646 58.5956V64.1756H76.1246V58.5956L73.3945 55.4756Z" fill="#FFF4E3"/>
</svg>
