<svg width="61" height="61" viewBox="0 0 61 61" fill="none" xmlns="http://www.w3.org/2000/svg">
<path d="M0 31.5912V29.7712C3.97 28.6512 7.94 28.0212 11.5 26.4512C21.9 21.8412 27.38 13.4712 28.81 2.30119C28.93 1.34119 28.39 -0.278818 30.21 0.0411823C30.75 0.141182 31.4 1.39118 31.47 2.16118C32.67 16.4812 44.08 27.9012 58.4 29.0212C58.99 29.0712 59.57 29.1312 60.3 29.2012V31.0012C56.35 32.1012 52.35 32.6912 48.81 34.2912C38.39 38.9912 32.71 47.3112 31.53 58.6912C31.31 60.8112 31.36 60.8112 28.99 60.6112C28.54 52.9012 25.97 45.9812 20.43 40.3812C14.88 34.7612 8.08 31.9512 0 31.5912Z" fill="url(#paint0_linear_8_5289)"/>
<defs>
<linearGradient id="paint0_linear_8_5289" x1="0" y1="30.3412" x2="60.31" y2="30.3412" gradientUnits="userSpaceOnUse">
<stop stop-color="#F469DC"/>
<stop offset="1" stop-color="#F56D00"/>
</linearGradient>
</defs>
</svg>
