<svg width="26" height="26" viewBox="0 0 26 26" fill="none" xmlns="http://www.w3.org/2000/svg">
<path opacity="0.33" d="M0.0200195 13.1365V12.3765C1.67002 11.9165 3.31999 11.6465 4.79999 10.9965C9.11999 9.08645 11.4 5.60647 11.99 0.956473C12.04 0.556473 11.81 -0.11353 12.57 0.0164702C12.8 0.0564702 13.07 0.576475 13.09 0.896475C13.59 6.84648 18.33 11.5964 24.28 12.0564C24.52 12.0764 24.77 12.1065 25.07 12.1265V12.8765C23.43 13.3365 21.77 13.5765 20.29 14.2465C15.96 16.1965 13.6 19.6565 13.11 24.3865C13.02 25.2665 13.04 25.2665 12.05 25.1865C11.86 21.9765 10.8 19.1065 8.48999 16.7765C6.17999 14.4465 3.36 13.2765 0 13.1265L0.0200195 13.1365Z" fill="black"/>
</svg>
