<svg width="307" height="220" viewBox="0 0 307 220" fill="none" xmlns="http://www.w3.org/2000/svg">
<path d="M306.686 139.204C304.906 143.364 303.126 147.534 301.276 151.884C308.606 159.484 305.976 167.974 293.716 176.484C294.746 177.114 295.716 177.694 296.666 178.294C304.066 182.934 304.786 189.984 297.986 195.534C294.896 198.064 291.136 200.024 287.376 201.444C276.226 205.654 264.706 206.364 253.106 203.554C246.836 202.034 241.266 199.304 239.316 192.814C234.996 194.594 230.756 197.744 226.486 197.784C220.556 197.844 217.706 200.384 214.046 204.504C206.096 213.464 194.576 215.174 186.286 202.474C185.186 200.784 184.186 199.024 183.056 197.164C175.146 211.554 161.616 216.274 146.996 218.814C136.786 220.584 126.576 220.134 116.926 215.804C111.156 213.204 106.266 209.604 105.406 202.624C105.296 201.754 105.206 200.834 105.406 200.004C105.516 199.574 106.246 199.164 106.776 199.044C107.016 198.984 107.686 199.604 107.726 199.964C108.916 212.684 118.986 214.904 128.526 216.374C142.496 218.514 156.146 216.224 168.336 208.694C172.436 206.154 176.166 202.464 178.976 198.524C182.826 193.114 181.216 186.644 175.846 182.694C166.836 176.064 156.426 175.344 145.836 176.414C140.806 176.924 135.876 178.484 130.896 179.524C129.876 179.734 128.816 179.714 127.436 178.924C128.016 178.444 128.526 177.754 129.186 177.514C131.466 176.694 133.766 175.894 136.106 175.334C143.656 173.514 143.796 173.574 144.566 165.854C145.806 153.334 145.526 140.844 142.526 128.574C140.776 121.424 136.516 116.204 129.186 114.134C123.296 112.464 118.446 115.414 116.636 121.444C129.116 131.424 131.256 144.944 128.716 159.444C125.736 176.504 118.606 191.284 102.376 199.934C95.1459 203.784 87.976 203.794 80.726 199.334C76.286 204.424 71.3159 208.834 63.9059 208.084C56.8959 207.374 52.416 202.564 48.086 197.344C46.926 198.394 45.9159 199.324 44.8859 200.234C34.7059 209.214 20.706 208.164 11.826 197.844C5.06599 189.994 1.75592 180.664 0.755918 170.624C-0.534082 157.684 1.14592 145.084 8.00592 133.704C13.4859 124.614 20.826 117.704 32.296 118.684C37.016 119.084 41.566 121.624 45.856 123.074C48.846 121.424 52.046 118.794 55.696 117.834C60.616 116.534 65.3759 118.674 69.2659 121.724C73.7359 125.234 77.7759 129.284 82.2759 133.344C90.4159 123.744 99.986 116.664 114.166 120.424C115.596 116.144 118.106 112.914 122.606 111.744C130.176 109.794 136.056 112.954 140.226 118.734C142.926 122.484 145.556 123.214 149.966 122.904C159.196 122.244 167.296 125.424 173.836 133.154C174.466 131.704 174.946 130.624 175.416 129.544C179.646 119.914 189.536 115.974 198.486 121.424C204.456 125.064 209.356 130.424 214.296 134.644C218.896 131.984 223.886 128.164 229.526 126.074C235.666 123.794 241.596 126.064 246.656 130.894C252.186 124.744 258.946 120.614 266.826 118.294C274.466 116.044 282.076 115.594 289.856 117.694C298.786 120.114 304.496 125.584 306.666 134.624V139.224L306.686 139.204ZM78.166 197.484C77.726 196.934 77.436 196.524 77.106 196.154C70.966 189.424 69.366 181.104 68.916 172.424C68.876 171.624 69.656 170.774 70.056 169.954C70.566 170.814 71.326 171.614 71.5359 172.544C71.836 173.894 71.626 175.354 71.806 176.744C73.036 186.254 75.9259 195.094 85.7659 198.784C95.3459 202.374 103.196 197.854 109.996 191.384C119.866 182.004 124.746 170.154 126.416 156.864C127.686 146.694 126.706 136.954 120.206 128.484C116.396 123.524 111.256 121.514 105.076 122.034C96.836 122.724 91.076 127.644 85.696 133.304C83.926 135.174 83.626 136.614 85.096 138.914C89.686 146.094 92.456 154.014 93.716 162.434C93.846 163.304 93.086 164.304 92.736 165.244C92.196 164.534 91.286 163.884 91.186 163.114C89.146 148.454 82.3959 136.264 71.3659 126.594C68.2159 123.834 64.066 121.974 60.086 120.464C55.916 118.874 51.8559 120.624 49.5159 124.434C48.9559 125.354 49.1059 127.164 49.6459 128.204C51.5059 131.814 54.2359 135.054 55.6459 138.804C62.6959 157.574 61.5659 175.774 51.1559 193.184C50.6259 194.074 50.2659 195.784 50.7459 196.444C58.9359 207.694 70.836 208.864 78.166 197.484ZM217.426 197.364C207.856 191.724 204.746 183.824 203.446 174.944C203.326 174.114 204.156 173.144 204.536 172.244C205.036 173.004 205.766 173.704 205.996 174.544C206.626 176.874 206.816 179.324 207.586 181.604C212.706 196.894 226.446 200.304 238.036 189.214C243.116 184.354 246.766 178.514 248.896 171.864C252.536 160.534 253.736 149.084 248.266 137.944C243.176 127.594 232.636 124.814 223.626 131.224C221.766 132.544 220.176 134.264 218.386 135.694C216.156 137.484 216.156 139.114 217.356 141.854C220.476 148.934 222.956 156.304 225.566 163.604C225.786 164.234 225.046 165.204 224.756 166.014C224.206 165.454 223.496 164.984 223.136 164.314C222.726 163.544 222.616 162.614 222.396 161.754C219.546 150.474 214.866 140.124 207.066 131.314C203.186 126.934 198.836 123.254 193.006 121.864C187.716 120.604 183.326 122.374 180.246 126.724C177.396 130.744 174.186 134.864 178.476 140.054C179.646 141.464 180.156 143.474 180.766 145.274C184.296 155.634 184.496 166.264 183.346 177.024C182.896 181.254 181.576 185.254 182.996 189.874C184.736 195.584 187.446 200.474 191.396 204.624C196.446 209.924 200.956 210.564 207.166 206.604C210.786 204.294 213.656 200.824 217.426 197.344V197.364ZM268.856 155.544C268.806 155.164 268.766 154.794 268.716 154.414C274.236 149.494 286.666 147.124 295.586 149.604C297.746 150.204 298.756 149.794 299.976 148.074C307.346 137.664 303.986 125.884 292.186 121.124C279.076 115.844 259.616 120.464 250.086 131.004C248.716 132.524 248.716 133.554 249.706 135.294C251.066 137.704 252.246 140.334 252.906 143.024C256.856 159.194 253.146 173.834 243.556 187.164C241.476 190.064 241.366 193.394 244.106 195.904C246.116 197.744 248.616 199.394 251.196 200.214C254.926 201.404 258.896 202.164 262.806 202.394C273.716 203.054 284.236 201.374 293.756 195.644C297.056 193.654 300.296 191.134 299.916 186.664C299.526 182.174 295.866 180.424 292.256 179.004C285.716 176.444 278.906 175.774 271.926 176.404C269.536 176.624 267.136 176.674 264.736 176.804C264.666 176.324 264.586 175.854 264.516 175.374C265.336 175.044 266.166 174.434 266.986 174.444C273.836 174.524 280.686 174.724 287.536 174.864C288.756 174.894 290.376 175.344 291.126 174.744C294.566 171.974 298.326 169.304 300.926 165.834C304.706 160.774 302.946 155.634 297.166 153.084C295.116 152.174 292.806 151.684 290.556 151.404C284.146 150.624 278.176 152.444 272.316 154.774C271.236 155.204 270.026 155.294 268.886 155.544H268.856ZM57.476 161.494C57.006 147.774 54.136 135.254 43.416 125.794C37.6059 120.664 29.446 119.044 22.816 123.004C18.466 125.604 14.3759 129.304 11.3959 133.404C4.97593 142.244 2.84594 152.714 2.90594 163.464C2.96594 174.194 5.18595 184.494 11.666 193.424C20.996 206.264 34.496 207.304 45.436 195.854C54.656 186.214 57.006 174.074 57.476 161.504V161.494ZM144.686 126.304C149.026 141.994 148.226 157.684 146.576 173.674C158.636 173.014 170.026 174.124 180.066 182.574C180.546 178.634 181.126 175.294 181.326 171.934C181.976 160.994 181.006 150.324 175.716 140.414C169.426 128.634 156.376 122.544 144.696 126.304H144.686Z" fill="white"/>
<path d="M191.636 40.3938C193.836 36.9038 195.856 33.5638 198.016 30.3238C201.526 25.0638 206.296 21.3938 212.206 19.1238C217.436 17.1138 222.326 18.0038 225.946 21.9638C229.676 26.0438 232.606 30.8438 235.806 35.3938C236.506 36.3938 236.856 37.6438 237.216 38.4338C241.716 33.6138 245.846 28.4938 250.686 24.1738C257.196 18.3538 265.106 15.0338 273.816 14.0238C280.916 13.1938 285.646 15.7138 288.886 22.0638C293.636 31.3638 293.756 41.2238 291.776 51.2038C288.616 67.0338 281.206 80.9938 271.776 93.8138C265.916 101.794 257.846 107.214 247.976 109.584C237.976 111.994 229.956 109.094 223.856 100.724C223.186 99.8038 222.576 98.8338 221.676 97.5238C211.196 109.774 198.746 117.584 182.136 113.554C165.796 109.594 157.606 97.2138 152.196 81.6738C147.056 93.1637 140.196 102.394 127.756 105.024C115.066 107.704 105.496 101.844 97.2658 91.8038C84.3558 111.854 68.2159 107.994 52.5459 98.8738C48.7659 102.044 45.5459 105.394 41.7259 107.794C37.3859 110.524 32.7059 113.514 27.8159 114.434C17.8959 116.294 9.5659 110.424 4.96591 99.7838C-1.05409 85.8638 -1.07408 71.4838 2.10592 56.9938C5.44592 41.7738 11.3858 27.8038 23.3658 17.1838C28.5658 12.5738 34.5058 9.43375 41.7558 9.97375C50.6658 10.6438 55.9059 16.2838 59.8359 23.5938C60.4259 24.6938 60.8959 25.8538 61.4559 27.0638C64.2059 23.7138 66.6158 20.2738 69.5258 17.3338C80.4858 6.24376 93.8159 8.14376 101.466 21.7138C101.706 22.1438 102.016 22.5338 102.476 23.2238C113.726 14.7138 125.346 13.8638 136.956 21.4138C138.166 17.0738 138.726 12.4638 140.686 8.55376C144.646 0.673757 154.016 -2.10624 162.046 1.66376C171.846 6.26376 178.306 14.2738 183.386 23.4538C186.376 28.8638 188.806 34.5738 191.626 40.4338L191.636 40.3938ZM199.156 67.6438C198.686 67.7838 198.226 67.9238 197.756 68.0638C197.326 67.2838 196.766 66.5437 196.476 65.7038C192.886 55.1237 189.676 44.3938 185.686 33.9638C181.816 23.8638 176.026 14.8138 167.406 7.94376C162.356 3.92376 156.936 1.07376 150.116 3.48376C141.976 6.36376 136.956 19.9338 142.126 25.8338C154.546 39.9938 157.696 56.3438 154.066 74.4038C153.846 75.4838 153.686 76.7538 154.026 77.7538C155.656 82.4338 157.076 87.2438 159.306 91.6438C171.026 114.704 197.256 118.724 215.466 100.484C218.936 97.0137 221.616 93.6738 218.336 88.6538C217.806 87.8438 217.606 86.7138 217.556 85.7238C217.516 84.8538 217.896 83.9738 218.096 83.0938C218.726 83.7238 219.656 84.2438 219.936 85.0038C221.066 87.9738 221.846 91.0838 223.016 94.0338C227.086 104.274 236.856 109.684 246.466 107.314C257.286 104.654 265.896 98.6837 271.726 89.3537C276.646 81.4837 281.396 73.3537 284.906 64.7937C289.996 52.3937 292.926 39.5038 287.836 26.0838C284.916 18.3838 279.796 15.2238 271.766 16.8838C262.196 18.8538 254.146 23.5238 247.426 30.5238C241.646 36.5338 236.996 42.7638 239.636 52.1238C240.736 56.0138 239.816 60.4738 239.816 64.6838C239.476 64.7638 239.136 64.8438 238.806 64.9138C238.426 64.2538 237.786 63.6238 237.726 62.9338C237.566 60.9038 237.766 58.8438 237.596 56.8038C236.666 45.5038 235.006 34.4738 226.426 25.8838C220.616 20.0638 216.736 19.3938 209.356 23.3638C201.206 27.7438 197.426 35.7038 193.236 43.2838C192.896 43.9038 193.256 45.0138 193.496 45.8338C195.246 51.9538 197.066 58.0438 198.786 64.1738C199.096 65.2838 199.026 66.4938 199.126 67.6538L199.156 67.6438ZM25.4958 62.3038L27.0058 61.4038C27.5058 62.0238 28.1159 62.5838 28.4859 63.2738C31.1959 68.3238 33.6759 73.4938 36.5659 78.4438C44.0059 91.2038 54.9359 99.4638 69.3159 102.964C74.6859 104.274 80.0959 104.054 84.8059 100.884C91.2159 96.5738 95.8959 90.6937 98.5759 83.4238C103.356 70.5038 106.686 57.2838 104.036 43.4038C102.686 36.3238 101.596 28.9338 98.6759 22.4638C93.6559 11.3538 82.2658 9.58377 73.0058 17.5638C67.0458 22.7038 63.1958 29.2238 60.7558 36.6538C60.4058 37.7138 59.8859 38.7138 59.4359 39.7338C58.9659 39.6138 58.4958 39.5038 58.0258 39.3838C58.3358 37.6838 58.6559 35.9738 58.9559 34.2738C59.2059 32.8138 59.9859 31.1638 59.5759 29.9038C53.8959 12.1138 39.2658 7.33375 26.0258 18.3638C13.3058 28.9638 7.50591 43.4238 4.34591 59.0838C1.52591 73.0938 1.60589 87.0238 8.07589 100.254C12.5359 109.384 20.9559 114.014 29.0859 111.794C37.6759 109.454 43.4659 103.564 48.5559 96.4238C37.5659 86.9338 30.5559 75.2238 25.4859 62.3038H25.4958ZM153.056 63.2438C153.296 51.3238 149.496 39.3738 142.826 30.6438C133.086 17.9038 117.416 15.2238 105.766 24.1138C103.756 25.6538 103.646 26.9738 104.146 29.1838C106.336 38.8838 108.176 48.6438 107.226 58.6838C106.276 68.6538 103.636 78.1838 99.8159 87.4238C99.4259 88.3638 99.5059 89.9938 100.086 90.7637C110.316 104.334 127.086 108.144 140.346 95.1037C149.346 86.2537 152.326 74.9538 153.056 63.2337V63.2438Z" fill="white"/>
<path d="M31.8958 182.074C36.8758 169.344 36.8258 157.124 28.7158 145.014C29.6858 145.134 30.7358 144.974 31.3958 145.404C32.3058 146.014 33.1857 146.944 33.6257 147.944C38.2057 158.454 39.9858 169.124 35.0558 180.044C34.6358 180.974 33.6957 181.664 32.9957 182.464C32.6357 182.334 32.2758 182.204 31.9158 182.064L31.8958 182.074Z" fill="white"/>
<path d="M124.466 79.8737C124.466 79.1037 124.296 78.2937 124.486 77.5837C127.526 66.1037 128.106 54.8137 122.306 43.8937C122.076 43.4737 122.556 42.6737 122.706 42.0537C123.386 42.4637 124.476 42.7237 124.696 43.3037C126.246 47.5837 128.596 51.8637 128.836 56.2537C129.196 63.0137 128.146 69.8637 127.506 76.6537C127.386 77.8737 126.336 79.0037 125.716 80.1837C125.296 80.0837 124.886 79.9837 124.466 79.8937V79.8737Z" fill="white"/>
</svg>
